<?xml version="1.0" standalone="no"?>
<!DOCTYPE svg PUBLIC "-//W3C//DTD SVG 20010904//EN"
 "http://www.w3.org/TR/2001/REC-SVG-20010904/DTD/svg10.dtd">
<svg version="1.0" xmlns="http://www.w3.org/2000/svg"
 width="800.000000pt" height="800.000000pt" viewBox="0 0 800.000000 800.000000"
 preserveAspectRatio="xMidYMid meet">

<g transform="translate(0.000000,800.000000) scale(0.100000,-0.100000)"
fill="#000000" stroke="none">
<path d="M5110 5959 c-69 -5 -183 -15 -255 -24 -416 -51 -523 -112 -653 -371
-180 -360 -232 -536 -272 -914 -18 -175 -51 -240 -144 -284 -20 -9 -36 -21
-36 -26 0 -6 -9 -10 -21 -10 -11 0 -34 -9 -51 -21 -16 -12 -30 -20 -32 -18 -2
2 -15 69 -30 149 -15 80 -33 174 -41 210 -14 62 -14 125 -1 163 3 9 8 23 10
30 2 7 16 13 32 15 41 3 47 14 45 78 -1 60 -18 99 -48 108 -29 9 -506 104
-677 136 -153 28 -181 40 -171 68 3 7 -2 15 -10 18 -8 4 -13 10 -10 14 3 5 1
11 -5 15 -10 6 -6 143 5 153 11 11 -19 32 -46 32 l-29 0 -1 -72 c-1 -40 -1
-79 0 -86 1 -7 -5 -15 -14 -18 -8 -3 -15 -12 -15 -20 0 -8 -5 -14 -11 -14 -6
0 -9 -7 -5 -15 4 -12 0 -14 -17 -10 -147 33 -236 43 -271 29 -25 -10 -38 -75
-24 -119 21 -63 45 -72 274 -116 283 -53 353 -68 391 -85 17 -8 40 -14 51 -14
27 0 63 -50 55 -78 -4 -18 -1 -22 17 -22 19 0 21 4 16 26 l-7 25 48 -27 c126
-72 171 -115 205 -193 26 -61 68 -276 68 -349 l0 -60 -72 -7 c-173 -16 -310
-51 -368 -93 -41 -30 -90 -110 -90 -147 0 -34 31 -65 65 -65 10 0 15 -10 15
-29 0 -16 6 -34 14 -40 7 -6 78 -19 157 -29 l144 -17 33 -49 c27 -40 30 -52
20 -62 -11 -10 -292 -165 -338 -187 -8 -4 -31 -17 -50 -28 -19 -12 -64 -37
-100 -57 -148 -80 -202 -135 -214 -216 -4 -26 -18 -59 -32 -75 -13 -16 -24
-34 -24 -40 0 -6 -11 -11 -24 -11 -24 0 -46 -33 -32 -47 8 -9 -14 -33 -30 -33
-7 0 -35 14 -61 30 -26 17 -66 35 -87 41 -22 6 -51 19 -64 30 -14 10 -33 19
-43 19 -31 0 -21 -30 15 -45 26 -11 35 -22 38 -45 3 -16 3 -32 1 -34 -2 -1
-27 2 -55 7 -32 7 -53 7 -55 1 -2 -5 -20 -8 -41 -6 -73 7 -230 -77 -266 -143
-6 -11 -20 -33 -32 -50 -37 -53 -74 -133 -85 -187 -6 -29 -18 -57 -26 -61 -10
-6 -13 -17 -9 -33 4 -14 2 -24 -4 -24 -5 0 -10 -7 -10 -15 0 -8 5 -15 10 -15
6 0 5 -9 -2 -21 -11 -18 -11 -23 0 -26 10 -4 10 -8 1 -19 -9 -11 -9 -18 1 -29
9 -10 9 -15 1 -15 -15 0 -14 -27 2 -33 9 -4 8 -8 -3 -16 -13 -10 -13 -13 0
-24 9 -7 14 -24 12 -39 -2 -16 1 -28 5 -28 5 0 15 -17 22 -37 36 -109 69 -162
144 -236 36 -34 111 -77 136 -77 6 0 11 -4 11 -9 0 -5 -25 -12 -55 -16 -30 -3
-55 -11 -55 -16 0 -11 3 -11 160 1 69 6 190 15 270 20 156 11 180 15 180 32 0
8 -40 9 -131 5 l-131 -6 46 30 c61 38 176 155 202 205 l20 39 70 -2 c38 0 159
-8 269 -17 110 -9 298 -16 418 -16 l218 0 -6 44 -7 43 44 22 c58 27 92 27 110
-1 12 -18 13 -27 4 -42 -8 -14 -8 -20 1 -23 8 -3 11 -14 7 -29 -4 -14 -2 -24
5 -24 6 0 8 -12 4 -30 -4 -23 -1 -34 11 -43 15 -11 36 -96 25 -97 -149 -15
-171 -35 -51 -45 73 -7 80 -9 100 -39 39 -57 38 -62 -15 -58 -55 3 -364 38
-468 52 -38 5 -97 9 -130 9 -60 -1 -60 -1 30 -14 50 -8 133 -21 185 -29 52 -8
174 -20 270 -27 l175 -11 35 -33 c19 -18 57 -47 84 -64 30 -19 44 -32 35 -35
-8 -2 -31 -10 -52 -16 -21 -7 -36 -14 -33 -17 10 -10 191 -2 261 11 200 39
250 49 255 53 10 9 -26 23 -58 23 l-34 0 50 56 c60 67 82 79 156 88 93 10 178
25 236 42 30 8 87 20 125 26 96 14 456 3 575 -18 124 -21 377 -14 540 15 63
12 116 21 118 21 2 0 0 5 -3 10 -3 6 -17 10 -30 10 -22 0 -20 4 23 48 26 27
56 67 67 90 11 23 23 42 27 42 3 0 10 15 13 32 4 18 12 39 17 46 6 6 7 12 3
12 -4 0 -2 6 4 14 6 8 11 18 10 22 -1 5 0 11 1 14 8 18 6 76 -4 82 -7 5 -5 8
7 8 20 0 23 26 5 33 -10 4 -9 8 2 17 11 9 12 13 3 17 -19 7 -16 23 5 23 16 1
16 1 0 14 -23 17 -23 26 -1 26 15 0 14 2 -3 14 -19 15 -19 15 1 30 18 14 18
15 3 16 -10 0 -18 3 -18 6 0 4 8 13 18 20 16 13 16 13 -2 14 -15 0 -16 3 -6
15 6 8 10 18 7 22 -3 4 -8 32 -11 61 -3 30 -9 59 -13 65 -4 7 -8 18 -9 25 -9
59 -106 187 -165 217 -31 16 -106 30 -187 34 -21 1 -23 5 -20 43 3 36 8 44 39
60 20 10 56 22 80 27 l44 9 -37 1 c-20 1 -49 -4 -64 -9 -35 -14 -73 -20 -150
-25 l-62 -4 -35 92 c-56 147 -68 195 -55 217 13 20 -13 135 -51 223 l-20 47
-61 0 c-38 0 -59 -4 -55 -10 3 -5 3 -10 -2 -10 -4 0 -21 18 -37 40 -17 22 -36
40 -43 40 -7 0 -13 7 -13 15 0 8 -6 15 -12 15 -9 0 -10 2 -2 8 7 4 13 16 15
26 3 12 16 23 36 28 37 10 59 37 74 93 9 32 13 36 20 22 13 -22 45 -22 58 0 7
13 5 23 -7 37 -9 11 -12 16 -6 13 15 -8 39 47 30 69 -9 23 -28 12 -49 -27
l-17 -34 6 65 c9 85 7 203 -6 303 -6 52 -6 93 0 116 14 55 38 225 45 326 5 70
4 87 -5 75 -10 -13 -11 -12 -5 5 12 36 -6 146 -27 167 -18 18 -19 20 -2 16 19
-3 28 -24 41 -93 6 -36 8 -31 14 45 4 47 7 132 8 189 1 57 7 129 15 160 8 31
17 72 20 91 4 22 25 57 56 93 51 60 60 89 41 139 -10 27 -70 88 -85 88 -6 0
-20 14 -31 31 -54 82 -151 99 -465 78z m-555 -725 c22 -23 15 -58 -12 -62 -30
-4 -53 39 -33 63 16 19 25 19 45 -1z m916 -800 c12 -55 9 -278 -4 -303 -26
-51 -32 -26 -33 149 -1 96 0 179 3 183 9 16 28 0 34 -29z m-205 -170 c-9 -9
-20 -13 -24 -9 -4 3 2 13 12 21 25 18 33 10 12 -12z m-28 -36 c-5 -15 -48 -24
-48 -10 0 14 12 22 33 22 10 0 17 -5 15 -12z m-28 -42 c0 -3 -4 -8 -10 -11 -5
-3 -10 -1 -10 4 0 6 5 11 10 11 6 0 10 -2 10 -4z m-29 -53 c-12 -20 -14 -14
-5 12 4 9 9 14 11 11 3 -2 0 -13 -6 -23z m-328 -230 c-7 -2 -21 -2 -30 0 -10
3 -4 5 12 5 17 0 24 -2 18 -5z m-579 -62 c90 -4 131 -10 134 -18 3 -10 -44
-13 -211 -13 -183 0 -218 2 -231 16 -9 8 -16 17 -16 20 0 5 164 3 324 -5z
m200 -17 c4 -10 1 -14 -6 -12 -15 5 -23 28 -10 28 5 0 13 -7 16 -16z m-1104 2
c0 -3 -4 -8 -10 -11 -5 -3 -10 -1 -10 4 0 6 5 11 10 11 6 0 10 -2 10 -4z
m1245 -6 c25 -6 20 -8 -27 -9 -31 0 -60 4 -63 9 -7 12 45 12 90 0z m245 -30
c0 -5 -14 -10 -31 -10 -17 0 -28 4 -24 10 3 6 17 10 31 10 13 0 24 -4 24 -10z
m195 -50 c-3 -5 -14 -10 -23 -10 -13 0 -13 -2 3 -14 39 -28 15 -132 -40 -172
-15 -10 -48 -35 -74 -54 -25 -20 -85 -62 -134 -95 -78 -53 -184 -137 -130
-104 24 15 158 108 238 165 28 19 66 46 86 59 56 37 81 79 88 149 4 40 11 60
19 59 6 -2 12 2 12 8 0 5 5 7 11 3 17 -10 5 -102 -20 -157 -18 -39 -42 -62
-154 -144 -151 -112 -158 -118 -249 -178 -37 -25 -73 -51 -80 -58 -7 -7 -29
-23 -49 -35 -20 -12 -54 -44 -75 -70 -60 -74 -61 -74 -84 -62 -11 6 -21 15
-21 20 -1 6 -3 15 -4 20 -1 6 -3 14 -4 18 0 5 -10 19 -21 32 -11 13 -23 35
-27 49 -3 14 -11 29 -16 33 -7 4 -4 16 7 32 19 30 4 35 -29 10 -89 -66 -185
-154 -185 -168 0 -15 -33 -35 -57 -36 -13 0 -23 4 -23 8 0 16 60 92 102 130
23 20 55 49 71 64 l30 27 -44 3 c-40 3 -46 7 -61 39 -9 20 -20 49 -24 64 -6
24 -4 27 10 22 10 -4 49 -7 87 -7 53 0 71 -4 74 -15 16 -49 13 -47 42 -27 72
50 188 112 200 107 8 -2 11 0 8 5 -6 10 61 46 77 42 4 -1 33 13 65 31 32 18
73 39 91 46 17 7 32 17 32 21 0 5 14 13 32 19 17 6 39 17 47 25 9 8 48 30 86
51 39 20 74 41 80 46 12 12 38 12 30 -1z m-555 -67 c11 -12 12 -17 3 -20 -7
-3 -13 -11 -13 -19 0 -26 -41 -30 -243 -26 -219 4 -199 -2 -221 68 l-7 22 233
-5 c189 -4 236 -8 248 -20z m60 7 c0 -5 -2 -10 -4 -10 -3 0 -8 5 -11 10 -3 6
-1 10 4 10 6 0 11 -4 11 -10z m253 3 l38 -6 -28 -18 c-21 -15 -47 -19 -110
-19 -71 0 -84 3 -93 19 -5 11 -10 22 -10 25 0 8 156 7 203 -1z m454 -125 c54
-45 63 -58 38 -58 -8 0 -15 -4 -15 -9 0 -10 -298 -96 -306 -88 -3 2 40 17 96
32 80 23 100 32 100 47 0 16 -9 18 -67 18 -48 0 -64 3 -56 11 17 17 137 88
149 89 5 0 33 -19 61 -42z m329 -10 c4 -7 3 -8 -4 -4 -15 9 -16 13 12 -74 l24
-75 -31 -32 c-17 -18 -34 -33 -37 -33 -4 0 -17 34 -30 75 l-24 75 39 40 c44
45 41 44 51 28z m-1872 -34 c9 -8 16 -18 16 -22 0 -4 -139 -43 -310 -88 -236
-61 -310 -77 -314 -67 -3 7 -18 13 -33 13 -25 1 -26 2 -10 11 10 6 24 8 32 5
12 -4 138 70 229 136 l39 28 168 0 c139 0 170 -3 183 -16z m-477 -30 c-26 -14
-52 -22 -57 -19 -6 3 -10 1 -10 -5 0 -6 -4 -8 -10 -5 -16 10 -12 38 5 31 8 -3
15 -2 15 3 0 5 12 7 27 5 15 -1 34 1 43 6 8 5 20 9 25 9 6 0 -12 -11 -38 -25z
m2370 -6 c-3 -8 -6 -5 -6 6 -1 11 2 17 5 13 3 -3 4 -12 1 -19z m-250 -124 c11
-15 43 -142 43 -171 0 -8 -9 -26 -20 -40 -34 -44 -18 -143 24 -143 22 0 35
-24 43 -80 6 -37 14 -56 28 -64 20 -11 35 -26 35 -36 0 -10 -235 2 -245 12 -7
8 -5 9 5 3 12 -6 13 -5 3 5 -8 9 -9 19 -2 31 5 11 10 34 11 53 1 33 -22 69
-100 153 -18 20 -22 32 -17 57 5 23 4 27 -4 16 -8 -12 -11 -8 -11 18 0 20 -4
31 -10 27 -5 -3 -10 2 -10 12 0 11 -4 23 -8 29 -4 5 -14 26 -21 47 -10 29 -10
42 -2 50 9 9 14 8 21 -3 8 -13 10 -12 10 3 0 10 8 17 18 17 10 0 23 5 28 10 6
6 30 16 55 24 37 11 50 11 79 -1 19 -7 40 -21 47 -29z m-1569 -24 l10 -40
-141 0 c-77 0 -137 3 -133 7 7 7 217 69 242 72 6 0 16 -17 22 -39z m-787 -100
c35 -7 60 -18 70 -32 12 -16 29 -22 60 -24 106 -4 102 -3 89 -19 -6 -8 -10
-20 -8 -27 3 -8 11 -2 22 15 19 28 46 37 46 15 0 -9 3 -9 12 0 13 13 88 17 88
5 0 -5 -9 -21 -20 -38 -11 -16 -20 -34 -20 -39 0 -16 28 15 40 44 12 30 39 41
41 18 0 -10 2 -10 6 0 2 6 22 12 43 12 l39 0 -26 -46 c-14 -25 -23 -47 -20
-50 3 -3 17 17 33 45 23 43 32 51 56 51 15 0 28 -2 28 -5 0 -2 -22 -49 -49
-105 -27 -55 -47 -100 -43 -100 4 0 31 47 59 104 47 92 56 104 79 104 22 0 25
-4 21 -24 -2 -13 -1 -21 4 -19 4 3 9 1 11 -5 2 -6 23 -14 47 -18 25 -4 46 -12
48 -18 2 -5 -13 -25 -34 -44 -35 -33 -36 -33 -19 -7 10 16 15 31 13 33 -12 12
-121 -242 -113 -262 3 -7 1 -16 -4 -19 -5 -3 -7 -12 -4 -19 3 -8 0 -17 -6 -21
-8 -5 -8 -11 1 -21 8 -10 8 -14 0 -14 -15 0 -14 -27 2 -33 22 -9 -116 -7 -203
3 -116 13 -220 17 -220 8 0 -19 58 -42 118 -48 l67 -7 -63 -2 c-101 -2 -153
-34 -187 -115 l-16 -39 -102 7 c-76 4 -109 11 -127 25 -33 23 -70 89 -70 123
0 14 -9 66 -21 115 -16 66 -18 92 -10 105 6 10 11 39 11 65 1 154 35 253 103
303 46 33 51 34 128 20z m1389 -210 c8 -5 12 -11 10 -14 -3 -2 -14 2 -24 10
-22 15 -10 19 14 4z m-814 -416 c37 -18 45 -34 17 -34 -16 -1 -16 -2 2 -16 13
-10 16 -18 8 -21 -7 -3 -9 -21 -6 -54 4 -45 3 -50 -13 -47 -13 2 -19 14 -21
41 -3 55 -61 124 -111 132 -63 11 -60 13 16 14 49 1 86 -5 108 -15z m-198 -52
c8 -6 10 -22 6 -55 l-7 -47 -53 0 c-52 0 -80 15 -50 26 24 9 19 39 -9 52 -14
6 -25 16 -25 22 0 12 119 14 138 2z m-690 -145 c28 -32 91 -58 151 -64 31 -3
61 -9 66 -13 6 -5 39 -6 73 -4 49 4 63 2 60 -8 -3 -7 -15 -19 -29 -25 -24 -13
-24 -13 9 -13 34 0 107 -28 98 -38 -8 -7 -232 -2 -301 7 l-60 8 60 3 60 3 -74
9 c-43 6 -68 13 -61 18 9 6 6 10 -9 15 -12 4 -28 2 -36 -5 -7 -6 -33 -10 -57
-8 -41 3 -43 5 -40 31 2 15 -2 35 -9 43 -9 11 -9 18 -1 26 9 9 9 15 0 26 -9
10 -9 15 2 22 7 4 10 15 7 24 -4 9 -2 28 4 43 l10 27 30 -54 c16 -29 37 -62
47 -73z m2272 54 c10 -1 11 -4 3 -12 -13 -13 -63 -4 -63 11 0 5 10 8 23 6 12
-3 29 -5 37 -5z m-390 -21 c0 -5 -4 -10 -10 -10 -5 0 -10 5 -10 10 0 6 5 10
10 10 6 0 10 -4 10 -10z m799 -6 c57 -3 109 -8 116 -10 6 -3 12 -20 13 -39 2
-60 41 -195 72 -253 17 -32 46 -74 66 -94 34 -36 34 -38 12 -38 -29 0 -270 20
-728 60 -190 16 -346 30 -347 30 -2 0 -3 27 -3 59 0 33 -5 63 -11 67 -7 4 -8
9 0 17 7 7 7 16 0 29 -20 38 65 76 100 44 9 -9 31 -19 49 -22 44 -9 92 38 92
92 l0 37 58 -6 c31 -3 104 -9 162 -13 l105 -6 30 31 c26 28 34 31 70 27 22 -3
87 -8 144 -12z m-745 -96 c-9 -14 -52 -8 -58 8 -3 8 -2 12 4 9 5 -3 17 9 26
27 l18 33 7 -35 c4 -19 5 -38 3 -42z m-1369 -59 c14 -5 4 -8 -32 -8 -49 -1
-63 6 -47 22 7 7 43 0 79 -14z m2675 -49 c0 -5 -5 -10 -11 -10 -5 0 -7 5 -4
10 3 6 8 10 11 10 2 0 4 -4 4 -10z m-56 -26 c3 -8 2 -12 -4 -9 -6 3 -10 10
-10 16 0 14 7 11 14 -7z"/>
<path d="M4815 3580 c-3 -6 1 -7 9 -4 18 7 21 14 7 14 -6 0 -13 -4 -16 -10z"/>
<path d="M5146 3289 c-8 -42 0 -50 9 -9 4 17 5 34 2 36 -2 3 -7 -10 -11 -27z"/>
<path d="M5121 3294 c0 -11 3 -14 6 -6 3 7 2 16 -1 19 -3 4 -6 -2 -5 -13z"/>
<path d="M5161 3234 c0 -11 3 -14 6 -6 3 7 2 16 -1 19 -3 4 -6 -2 -5 -13z"/>
<path d="M5338 2833 c7 -3 16 -2 19 1 4 3 -2 6 -13 5 -11 0 -14 -3 -6 -6z"/>
<path d="M3167 3142 c-17 -18 -23 -42 -11 -42 9 0 30 24 37 43 8 22 -5 22 -26
-1z"/>
<path d="M3111 3141 c-7 -5 -11 -17 -9 -27 4 -17 5 -17 17 4 14 27 12 35 -8
23z"/>
<path d="M3296 3078 c-9 -12 -16 -29 -16 -38 0 -8 10 0 21 18 24 37 20 55 -5
20z"/>
<path d="M3636 3085 c-9 -26 -7 -32 5 -12 6 10 9 21 6 23 -2 3 -7 -2 -11 -11z"/>
<path d="M3418 3045 c-27 -45 -50 -104 -28 -75 17 23 62 112 58 115 -2 2 -15
-16 -30 -40z"/>
<path d="M3234 3059 c-6 -8 -14 -23 -18 -34 -7 -19 -6 -19 15 1 12 12 20 27
17 34 -3 9 -6 9 -14 -1z"/>
<path d="M3117 3054 c-4 -4 -7 -17 -7 -28 1 -19 1 -20 11 -3 11 19 8 43 -4 31z"/>
<path d="M3165 3037 c-10 -15 -16 -30 -13 -32 8 -9 40 33 36 47 -3 8 -11 2
-23 -15z"/>
<path d="M3576 2963 c-26 -47 -45 -91 -43 -97 2 -6 19 21 37 59 18 39 39 82
46 98 8 15 13 27 10 27 -2 0 -25 -39 -50 -87z"/>
<path d="M3342 2987 c-12 -21 -17 -37 -13 -37 13 0 43 49 39 62 -2 6 -14 -5
-26 -25z"/>
<path d="M3626 3005 c-9 -26 -7 -32 5 -12 6 10 9 21 6 23 -2 3 -7 -2 -11 -11z"/>
<path d="M3456 2951 c-15 -28 -23 -51 -18 -51 10 0 55 91 48 97 -3 3 -16 -18
-30 -46z"/>
<path d="M3286 2971 c-10 -11 -16 -28 -14 -38 3 -14 8 -11 22 15 20 40 17 50
-8 23z"/>
<path d="M3227 2952 c-26 -28 -22 -52 4 -25 12 11 20 26 17 33 -2 7 -9 5 -21
-8z"/>
<path d="M3120 2944 c0 -8 5 -12 10 -9 6 3 10 10 10 16 0 5 -4 9 -10 9 -5 0
-10 -7 -10 -16z"/>
<path d="M3166 2944 c-15 -39 4 -42 24 -3 8 15 7 19 -4 19 -7 0 -17 -7 -20
-16z"/>
<path d="M3386 2898 c-18 -25 -20 -38 -8 -38 10 0 35 50 28 57 -2 2 -11 -6
-20 -19z"/>
<path d="M3333 2878 c-15 -19 -23 -48 -14 -48 10 0 36 48 29 55 -3 3 -10 0
-15 -7z"/>
<path d="M3275 2857 c-10 -15 -16 -30 -13 -32 8 -9 40 33 36 47 -3 8 -11 2
-23 -15z"/>
<path d="M3481 2839 c-13 -22 -21 -43 -18 -46 3 -3 15 14 27 37 12 23 20 44
17 46 -2 2 -14 -14 -26 -37z"/>
<path d="M3125 2861 c-3 -5 -1 -12 5 -16 5 -3 10 1 10 9 0 18 -6 21 -15 7z"/>
<path d="M3176 2855 c-18 -18 -21 -35 -6 -35 11 0 34 39 27 46 -3 3 -12 -2
-21 -11z"/>
<path d="M3220 2849 c-15 -28 -4 -38 15 -13 17 22 19 34 5 34 -5 0 -14 -9 -20
-21z"/>
<path d="M3576 2810 c-18 -33 -22 -48 -13 -44 13 5 51 83 44 91 -2 2 -16 -19
-31 -47z"/>
<path d="M3426 2808 c-20 -28 -21 -44 -2 -29 13 11 29 51 21 51 -2 0 -11 -10
-19 -22z"/>
<path d="M3383 2798 c-21 -27 -24 -38 -10 -32 8 3 17 14 20 25 6 22 3 24 -10
7z"/>
<path d="M3178 2773 c7 -3 16 -2 19 1 4 3 -2 6 -13 5 -11 0 -14 -3 -6 -6z"/>
<path d="M3220 2770 c-13 -8 -13 -10 2 -10 9 0 20 5 23 10 8 13 -5 13 -25 0z"/>
<path d="M3270 2770 c-13 -8 -12 -10 3 -10 9 0 17 5 17 10 0 12 -1 12 -20 0z"/>
<path d="M3315 2770 c-3 -5 1 -10 9 -10 9 0 16 5 16 10 0 6 -4 10 -9 10 -6 0
-13 -4 -16 -10z"/>
<path d="M3515 2760 c-3 -5 -1 -10 4 -10 6 0 11 5 11 10 0 6 -2 10 -4 10 -3 0
-8 -4 -11 -10z"/>
<path d="M3465 2750 c-3 -5 -1 -10 4 -10 6 0 11 5 11 10 0 6 -2 10 -4 10 -3 0
-8 -4 -11 -10z"/>
<path d="M2635 1810 c-106 -9 -213 -29 -221 -41 -3 -5 77 -9 178 -9 170 0 347
-12 392 -26 19 -6 19 -7 2 -19 -15 -11 -7 -14 56 -20 76 -7 335 17 384 35 54
21 10 30 -144 30 -144 0 -311 12 -355 26 -14 5 -16 9 -6 20 10 12 -4 14 -92
13 -57 -1 -144 -5 -194 -9z"/>
</g>
</svg>
