<?xml version="1.0" encoding="UTF-8"?>
<svg version="1.1" xmlns="http://www.w3.org/2000/svg" width="500" height="500">
<path d="M0 0 C4.29 0 8.58 0 13 0 C12.57787954 3.16590342 12.14880445 6.29573465 11.48828125 9.421875 C7.54150645 28.34400101 10.51204095 48.41063831 21.140625 64.75390625 C21.68976563 65.55634766 21.68976563 65.55634766 22.25 66.375 C24 69 24 69 24 71 C24.66 71 25.32 71 26 71 C27.4453125 72.50390625 27.4453125 72.50390625 29.125 74.5625 C40.15629414 87.42856791 55.09626042 96.09856956 71.9375 98.8125 C73.28938823 98.91285851 74.64478383 98.9674003 76 99 C77.20398438 99.03867187 78.40796875 99.07734375 79.6484375 99.1171875 C100.78961583 99.57880731 118.93209148 93.72810771 134.72265625 79.44140625 C137.04956209 77.34064471 138.547729 76.07362551 141.6875 75.5625 C144 76 144 76 147 78 C147.29296875 80.1640625 147.29296875 80.1640625 147.1875 82.625 C147.14689453 83.85089844 147.14689453 83.85089844 147.10546875 85.1015625 C147.07066406 85.72804688 147.03585937 86.35453125 147 87 C146.0409375 87.4021875 146.0409375 87.4021875 145.0625 87.8125 C142.66868314 88.88667752 142.66868314 88.88667752 142 92 C139.98586799 93.58503432 138.00329547 95.02372049 135.875 96.4375 C134.9787793 97.04126465 134.9787793 97.04126465 134.06445312 97.65722656 C132.38327814 98.78198213 130.6919644 99.89154122 129 101 C128.35289062 101.42925781 127.70578125 101.85851562 127.0390625 102.30078125 C114.46854562 110.05366349 100.93737002 112.37397944 86.47314453 112.37060547 C84.39920998 112.37494929 82.32746217 112.41128484 80.25390625 112.44921875 C67.98365889 112.55372044 56.52006287 110.3698742 45.5625 104.5625 C44.42683594 103.96179688 43.29117188 103.36109375 42.12109375 102.7421875 C38.2994283 100.60894246 34.58751521 98.51126065 31 96 C31 95.34 31 94.68 31 94 C29.89011719 93.62488281 29.89011719 93.62488281 28.7578125 93.2421875 C25.77532664 91.89880152 24.1316523 90.47014847 21.875 88.125 C21.21242187 87.44695312 20.54984375 86.76890625 19.8671875 86.0703125 C15 80.67364017 15 80.67364017 15 78 C14.34 78 13.68 78 13 78 C6.85780717 70.38558053 3.08319728 61.19874613 0 52 C-0.27215332 51.21761963 -0.54430664 50.43523926 -0.82470703 49.62915039 C-3.14235812 42.24275377 -3.46356145 35.18686787 -3.39111328 27.47485352 C-3.37499078 25.43633432 -3.39106633 23.39978859 -3.41015625 21.36132812 C-3.38745305 13.63088966 -2.65979487 7.26869868 0 0 Z " fill="#6B23A3" transform="translate(178,180)"/>
<path d="M0 0 C4.29 0 8.58 0 13 0 C14.2038998 3.61169941 13.75216267 3.92756375 12.125 7.1875 C7.07654665 19.17757671 8.38599176 32.98005664 12.625 45 C15.06732965 50.76352793 19.23569015 59.11784507 25 62 C25 62.66 25 63.32 25 64 C25.61875 64.309375 26.2375 64.61875 26.875 64.9375 C28.25 65.625 29.625 66.3125 31 67 C31 67.66 31 68.32 31 69 C31.81017578 69.17015625 31.81017578 69.17015625 32.63671875 69.34375 C35.49986981 70.13880682 38.09455956 71.29977983 40.8125 72.5 C53.63386338 77.87320422 67.20631592 76.98356363 80.125 72.25 C86.12090953 69.72738814 90.83338722 65.96026871 95.625 61.625 C98.64835963 59.55638552 100.40588208 59.53120201 104 60 C107 62 107 62 108.125 64.625 C107.95912784 69.10354826 106.4671869 70.73237073 103.4296875 73.91015625 C89.97216512 85.48535637 72.89374255 90.84900195 55.28125 90.34765625 C41.17135258 88.85267902 27.74838564 83.28064391 17 74 C16.34515625 73.43925781 15.6903125 72.87851563 15.015625 72.30078125 C4.923051 62.97101808 -3.17037278 48.96000806 -4.21777344 35.12304688 C-4.34055069 31.82936959 -4.3712029 28.54588301 -4.375 25.25 C-4.39949219 24.1465625 -4.42398438 23.043125 -4.44921875 21.90625 C-4.47766897 13.82638865 -2.88440751 7.54734297 0 0 Z " fill="#6B23A2" transform="translate(202,180)"/>
<path d="M0 0 C1.73289991 0.00731674 3.46581554 0.01151391 5.19873047 0.01274109 C8.83417126 0.0235083 12.46803502 0.06059174 16.10302734 0.1184082 C20.72826169 0.19152604 25.35213079 0.21761535 29.97789001 0.22582722 C33.56086408 0.23448506 37.14356398 0.25970842 40.72640991 0.29057884 C42.42936998 0.30501409 44.13235734 0.31656425 45.83535767 0.32500648 C59.85931665 0.41966286 75.7148349 0.82844241 86.6875 10.88671875 C86.6875 11.54671875 86.6875 12.20671875 86.6875 12.88671875 C87.6775 13.21671875 88.6675 13.54671875 89.6875 13.88671875 C89.8828125 19.94140625 89.8828125 19.94140625 89.6875 21.88671875 C87.6875 23.88671875 87.6875 23.88671875 84 24.38671875 C80.37232487 24.32111884 78.72431621 23.44233044 76.0625 21.01171875 C75.55460937 20.47804687 75.04671875 19.944375 74.5234375 19.39453125 C69.67764363 15.41479415 63.78472547 15.58372199 57.83642578 15.56787109 C56.96748184 15.55782547 56.0985379 15.54777985 55.20326233 15.53742981 C52.34645211 15.50667141 49.48973531 15.48958311 46.6328125 15.47265625 C44.64597779 15.4539387 42.65915098 15.43436485 40.67233276 15.41397095 C35.45443383 15.36270585 30.23650914 15.32304999 25.01849365 15.28582764 C19.68934792 15.24575277 14.36030881 15.19467631 9.03125 15.14453125 C-1.4165917 15.04783851 -11.86449369 14.96341241 -22.3125 14.88671875 C-22.47176643 9.98052857 -22.29077571 6.60653583 -19.49072266 2.51669312 C-14.27827087 -1.38380933 -6.22984957 -0.12411605 0 0 Z " fill="#6D26A2" transform="translate(202.3125,163.11328125)"/>
<path d="M0 0 C5.61 0 11.22 0 17 0 C14.57142857 4.85714286 14.57142857 4.85714286 12 7 C11.34 7 10.68 7 10 7 C9.731875 7.825 9.46375 8.65 9.1875 9.5 C8.57489826 11.30556301 7.95206 13.11154819 7.19921875 14.86328125 C4.46347159 21.33312881 3.90780361 27.31852763 6.125 34.0625 C9.77454449 42.44478713 14.45676542 47.12121488 22.83984375 50.93359375 C30.71026888 53.58949741 37.6283754 52.49182218 45 49 C46.35863401 48.03465478 47.70343137 47.04722851 49 46 C49.66 46 50.32 46 51 46 C51 45.34 51 44.68 51 44 C53.79870027 42.60064987 55.90498792 42.74734595 59 43 C60.875 44.0625 60.875 44.0625 62 46 C62.8125 49.1875 62.8125 49.1875 62 53 C54.70748942 60.792977 45.50730226 64.87860663 35 66 C24.82805458 66.01453135 13.94379604 63.72338044 6 57 C6 56.34 6 55.68 6 55 C5.360625 54.731875 4.72125 54.46375 4.0625 54.1875 C2 53 2 53 1 50 C0.34 50 -0.32 50 -1 50 C-1.98163422 48.06374902 -2.96022454 46.12595461 -3.9375 44.1875 C-4.48277344 43.10855469 -5.02804688 42.02960938 -5.58984375 40.91796875 C-9.64698921 32.52271208 -9.82061459 19.87355032 -6.8828125 11.01171875 C-5.71043894 8.24637434 -4.48493145 5.60923669 -3 3 C-2.34 3 -1.68 3 -1 3 C-0.67 2.01 -0.34 1.02 0 0 Z " fill="#6B23A3" transform="translate(230,180)"/>
<path d="M0 0 C9.38923596 -0.11664009 18.77821667 -0.2050889 28.16802311 -0.25906086 C32.52967767 -0.28498491 36.89083104 -0.32006146 41.25219727 -0.37719727 C45.47330476 -0.43213984 49.69393495 -0.46154922 53.91537285 -0.47438622 C55.51350847 -0.48351597 57.11162254 -0.50133881 58.70955086 -0.52865028 C76.90120146 -0.82677551 92.47723952 4.20819954 106 17 C106 17.66 106 18.32 106 19 C106.66 19 107.32 19 108 19 C109.28163292 22.84489875 108.69835501 24.37169613 107 28 C104.75 29.5625 104.75 29.5625 102 30 C97.75424708 28.40784265 94.34424207 26.04916189 91 23 C91 22.34 91 21.68 91 21 C90.443125 20.896875 89.88625 20.79375 89.3125 20.6875 C87 20 87 20 84.80480957 18.59136963 C73.78482922 12.33894443 60.33358383 12.39711196 48.03125 12.390625 C46.37258327 12.37559628 44.71393123 12.35885958 43.05529785 12.34051514 C38.74826259 12.29735463 34.44142888 12.27695841 30.13421631 12.26177979 C25.71566086 12.24202073 21.29731741 12.20007389 16.87890625 12.16015625 C8.25266049 12.085412 -0.37350085 12.03478582 -9 12 C-7.68 9.69 -6.36 7.38 -5 5 C-4.34 5 -3.68 5 -3 5 C-3 4.34 -3 3.68 -3 3 C-2.34 3 -1.68 3 -1 3 C-0.67 2.01 -0.34 1.02 0 0 Z " fill="#6C24A2" transform="translate(201,141)"/>
<path d="M0 0 C0 0.66 0 1.32 0 2 C0.8971875 2.185625 0.8971875 2.185625 1.8125 2.375 C4 3 4 3 7 5 C7 5.66 7 6.32 7 7 C8.65 7.66 10.3 8.32 12 9 C12 9.66 12 10.32 12 11 C12.66 11 13.32 11 14 11 C16.72286806 15.08430208 16.38524534 17.14590877 16 22 C12.92958135 24.04694577 11.64308684 24.4847392 8.0546875 23.859375 C5.30891929 22.71095484 3.68993293 21.01479142 1.5625 18.9375 C-4.72460993 12.9007191 -12.07259829 9.42346604 -20 6 C-20.62229492 5.72897461 -21.24458984 5.45794922 -21.88574219 5.17871094 C-31.40466223 1.30816788 -41.27863776 0.69465092 -51.44921875 0.5859375 C-52.58784866 0.56657135 -53.72647858 0.5472052 -54.89961243 0.5272522 C-58.49550149 0.46801979 -62.09142355 0.42129831 -65.6875 0.375 C-68.1425912 0.33676829 -70.59766974 0.29771364 -73.05273438 0.2578125 C-79.03504283 0.16236535 -85.01742916 0.07715727 -91 0 C-88.37197051 -5.25605897 -79.57706896 -7.3214026 -74.38452148 -9.13793945 C-49.11126333 -17.12490186 -22.65521486 -12.63884173 0 0 Z " fill="#6B24A3" transform="translate(309,130)"/>
<path d="M0 0 C3.93192933 3.62947323 6.18761305 6.44798895 6.67578125 11.921875 C6.83834225 18.66387838 6.58334791 22.83736523 2.4375 28.25 C-2.19320292 32.45972993 -6.81187721 32.59886953 -12.8359375 32.52734375 C-18.02377248 31.99964134 -20.55551324 29.39306605 -23.875 25.625 C-26.73915451 19.89669098 -27.47128271 14.08533459 -25.4375 7.9375 C-23.82682424 4.28762006 -21.65426204 1.80070368 -18.5625 -0.75 C-12.48273026 -2.77658991 -5.7549433 -2.82698969 0 0 Z M-17.5625 8.25 C-19.19436199 13.14558597 -19.40181781 17.49506275 -17.1875 22.125 C-15.59141081 24.30919833 -15.59141081 24.30919833 -13.5625 26.25 C-9.54145243 26.69678306 -7.42493584 26.9308704 -4.1875 24.375 C-0.62906011 19.72165552 -0.99799997 14.92772491 -1.5625 9.25 C-2.80628681 5.94146306 -2.80628681 5.94146306 -5.5625 4.25 C-10.78024791 3.0738683 -14.34251861 3.74202606 -17.5625 8.25 Z " fill="#000000" transform="translate(349.5625,318.75)"/>
<path d="M0 0 C2.660625 -0.061875 5.32125 -0.12375 8.0625 -0.1875 C8.8862915 -0.21481201 9.71008301 -0.24212402 10.55883789 -0.27026367 C15.79270079 -0.32855001 19.38558453 0.47823664 24 3 C26.4915904 6.7373856 26.45793285 8.57331583 26 13 C24 15.9375 24 15.9375 22 18 C22.45375 18.99 22.9075 19.98 23.375 21 C25.06692715 24.92110131 26.05143901 28.84092487 27 33 C24.36 33 21.72 33 19 33 C17.50859979 29.37802806 16.2125738 25.72433382 15 22 C12.69 21.67 10.38 21.34 8 21 C8 24.96 8 28.92 8 33 C5.36 33 2.72 33 0 33 C0 22.11 0 11.22 0 0 Z M8 6 C8 8.97 8 11.94 8 15 C13.32170494 15.29562367 13.32170494 15.29562367 18 13 C18.25030977 10.41619823 18.25030977 10.41619823 18 8 C14.5980513 5.90649311 11.94727588 5.82057837 8 6 Z " fill="#000000" transform="translate(230,317)"/>
<path d="M0 0 C3.93192933 3.62947323 6.18761305 6.44798895 6.67578125 11.921875 C6.83834225 18.66387838 6.58334791 22.83736523 2.4375 28.25 C-2.19320292 32.45972993 -6.81187721 32.59886953 -12.8359375 32.52734375 C-18.02377248 31.99964134 -20.55551324 29.39306605 -23.875 25.625 C-26.73915451 19.89669098 -27.47128271 14.08533459 -25.4375 7.9375 C-23.82682424 4.28762006 -21.65426204 1.80070368 -18.5625 -0.75 C-12.48273026 -2.77658991 -5.7549433 -2.82698969 0 0 Z M-17.5625 8.25 C-19.19436199 13.14558597 -19.40181781 17.49506275 -17.1875 22.125 C-15.59141081 24.30919833 -15.59141081 24.30919833 -13.5625 26.25 C-9.54145243 26.69678306 -7.42493584 26.9308704 -4.1875 24.375 C-0.62906011 19.72165552 -0.99799997 14.92772491 -1.5625 9.25 C-2.80628681 5.94146306 -2.80628681 5.94146306 -5.5625 4.25 C-10.78024791 3.0738683 -14.34251861 3.74202606 -17.5625 8.25 Z " fill="#000000" transform="translate(211.5625,318.75)"/>
<path d="M0 0 C3.33195019 1.22255967 5.35023899 3.05489307 7.375 6 C8 8 8 8 8 12 C5.69 12 3.38 12 1 12 C0.79375 11.195625 0.5875 10.39125 0.375 9.5625 C-0.77855053 6.72399792 -0.77855053 6.72399792 -3.8125 6 C-7.72905948 6 -9.13897451 6.29792037 -12 9 C-13.8043764 13.29287655 -14.43760802 17.40558778 -13.25 21.9375 C-12.21168322 25.04662319 -12.21168322 25.04662319 -10 27 C-6.58500409 27.66707548 -6.58500409 27.66707548 -3 27 C-2.34 26.01 -1.68 25.02 -1 24 C-0.34 23.01 0.32 22.02 1 21 C4.75 20.625 4.75 20.625 8 21 C7.76001446 27.11963135 7.76001446 27.11963135 5.66796875 29.54296875 C0.5356718 33.80115187 -2.73389447 34.35386595 -9.23828125 34.27734375 C-14.3932776 33.7596567 -16.89975329 31.12920057 -20.375 27.5625 C-23.29248669 21.16647149 -23.0189832 14.05694959 -20.8125 7.4375 C-15.09919226 -0.24591386 -9.06524399 -0.86392012 0 0 Z " fill="#000000" transform="translate(167,317)"/>
<path d="M0 0 C8.25 0 16.5 0 25 0 C25 7.87453738 25 7.87453738 22.734375 10.5703125 C22.25613281 11.15683594 21.77789062 11.74335938 21.28515625 12.34765625 C20.77855469 12.93417969 20.27195312 13.52070313 19.75 14.125 C19.25886719 14.71925781 18.76773437 15.31351562 18.26171875 15.92578125 C17.33682157 17.04305704 16.40506437 18.15472123 15.46386719 19.25830078 C13.60274207 21.47265478 11.80699458 23.74125678 10 26 C15.28 26.33 20.56 26.66 26 27 C26 28.98 26 30.96 26 33 C17.09 33 8.18 33 -1 33 C-1 26.25095815 -1 26.25095815 1.73828125 23.0546875 C2.31126953 22.37019531 2.88425781 21.68570312 3.47460938 20.98046875 C4.08111328 20.28566406 4.68761719 19.59085937 5.3125 18.875 C6.49643608 17.47685231 7.6800404 16.07842361 8.86328125 14.6796875 C9.39219971 14.06851074 9.92111816 13.45733398 10.46606445 12.82763672 C12.0483204 10.94242773 13.52327496 8.96896672 15 7 C10.05 6.67 5.1 6.34 0 6 C0 4.02 0 2.04 0 0 Z " fill="#000000" transform="translate(288,317)"/>
<path d="M0 0 C2.31 0 4.62 0 7 0 C7 10.89 7 21.78 7 33 C4.69 33 2.38 33 0 33 C0 22.11 0 11.22 0 0 Z " fill="#000000" transform="translate(268,317)"/>
<path d="M0 0 C3.625 -0.1875 3.625 -0.1875 7 0 C7.08090971 1.62418745 7.13914995 3.24951745 7.1875 4.875 C7.22230469 5.77992188 7.25710937 6.68484375 7.29296875 7.6171875 C7.19628906 8.40351563 7.09960938 9.18984375 7 10 C4 12 4 12 1.3125 11.625 C0.549375 11.41875 -0.21375 11.2125 -1 11 C-2.25 3.375 -2.25 3.375 0 0 Z M2 2 C2 3.32 2 4.64 2 6 C2.66 6 3.32 6 4 6 C4 4.68 4 3.36 4 2 C3.34 2 2.68 2 2 2 Z " fill="#515151" transform="translate(187,367)"/>
<path d="M0 0 C1.97909398 -0.02686553 3.95828971 -0.04633375 5.9375 -0.0625 C7.03964844 -0.07410156 8.14179688 -0.08570313 9.27734375 -0.09765625 C12 0 12 0 13 1 C13.04092937 3.33297433 13.04241723 5.66705225 13 8 C12.01 8 11.02 8 10 8 C10 6.02 10 4.04 10 2 C9.34 2 8.68 2 8 2 C8 3.98 8 5.96 8 8 C7.01 8 6.02 8 5 8 C4.67 6.35 4.34 4.7 4 3 C3.67 4.65 3.34 6.3 3 8 C2.01 8 1.02 8 0 8 C0 5.36 0 2.72 0 0 Z " fill="#525252" transform="translate(238,367)"/>
<path d="M0 0 C1.97909398 -0.02686553 3.95828971 -0.04633375 5.9375 -0.0625 C7.03964844 -0.07410156 8.14179687 -0.08570313 9.27734375 -0.09765625 C12 0 12 0 13 1 C13.04092937 3.33297433 13.04241723 5.66705225 13 8 C12.01 8 11.02 8 10 8 C10 6.02 10 4.04 10 2 C9.34 2 8.68 2 8 2 C8 3.98 8 5.96 8 8 C7.01 8 6.02 8 5 8 C4.67 6.35 4.34 4.7 4 3 C3.67 4.65 3.34 6.3 3 8 C2.01 8 1.02 8 0 8 C0 5.36 0 2.72 0 0 Z " fill="#525252" transform="translate(71,367)"/>
<path d="M0 0 C1.32 0.33 2.64 0.66 4 1 C6.09821215 0.60061233 6.09821215 0.60061233 8 0 C9.66666667 0 11.33333333 0 13 0 C12.125 5.75 12.125 5.75 11 8 C8.03 8 5.06 8 2 8 C1.34 5.36 0.68 2.72 0 0 Z " fill="#525252" transform="translate(307,367)"/>
<path d="M0 0 C4.29 0 8.58 0 13 0 C12.01 2.64 11.02 5.28 10 8 C8.68 7.67 7.36 7.34 6 7 C3.81296615 7.37907282 3.81296615 7.37907282 2 8 C0.23537317 4.91190305 0 3.76687864 0 0 Z " fill="#525252" transform="translate(119,367)"/>
<path d="M0 0 C6.15234375 -0.09765625 6.15234375 -0.09765625 8 0 C9 1 9 1 9.1875 3.9375 C9 7 9 7 7 9 C5.68 9 4.36 9 3 9 C3 9.66 3 10.32 3 11 C2.01 11 1.02 11 0 11 C0 7.37 0 3.74 0 0 Z M4 2 C4 3.32 4 4.64 4 6 C4.66 6 5.32 6 6 6 C6 4.68 6 3.36 6 2 C5.34 2 4.68 2 4 2 Z " fill="#515151" transform="translate(90,367)"/>
<path d="M0 0 C0.99 0 1.98 0 3 0 C3 3.63 3 7.26 3 11 C-2.75 12.125 -2.75 12.125 -5 11 C-5.75 8.625 -5.75 8.625 -6 6 C-5.34 5.01 -4.68 4.02 -4 3 C-2.68 3 -1.36 3 0 3 C0 2.01 0 1.02 0 0 Z M-2 5 C-2 6.32 -2 7.64 -2 9 C-1.34 9 -0.68 9 0 9 C0 7.68 0 6.36 0 5 C-0.66 5 -1.32 5 -2 5 Z " fill="#515151" transform="translate(402,364)"/>
<path d="M0 0 C2.64 0 5.28 0 8 0 C8 0.99 8 1.98 8 3 C6.35 3 4.7 3 3 3 C3 3.66 3 4.32 3 5 C4.65 5 6.3 5 8 5 C8 5.66 8 6.32 8 7 C6.35 7 4.7 7 3 7 C3 7.66 3 8.32 3 9 C4.65 9 6.3 9 8 9 C8 9.66 8 10.32 8 11 C5.36 11 2.72 11 0 11 C0 7.37 0 3.74 0 0 Z " fill="#535353" transform="translate(57,364)"/>
<path d="M0 0 C3.125 -0.1875 3.125 -0.1875 6 0 C6.33 2.31 6.66 4.62 7 7 C4 9 4 9 1.3125 8.625 C0.549375 8.41875 -0.21375 8.2125 -1 8 C-1.625 5.6875 -1.625 5.6875 -2 3 C-1.34 2.01 -0.68 1.02 0 0 Z " fill="#515151" transform="translate(413,367)"/>
<path d="M0 0 C3.125 -0.1875 3.125 -0.1875 6 0 C6.33 2.31 6.66 4.62 7 7 C4 9 4 9 1.3125 8.625 C0.549375 8.41875 -0.21375 8.2125 -1 8 C-1.625 5.6875 -1.625 5.6875 -2 3 C-1.34 2.01 -0.68 1.02 0 0 Z " fill="#515151" transform="translate(138,367)"/>
<path d="M0 0 C1.134375 0.020625 2.26875 0.04125 3.4375 0.0625 C3.7675 2.3725 4.0975 4.6825 4.4375 7.0625 C1.4375 9.0625 1.4375 9.0625 -1.1875 8.75 C-3.5625 8.0625 -3.5625 8.0625 -4.5625 7.0625 C-4.6875 4.0625 -4.6875 4.0625 -4.5625 1.0625 C-3.5625 0.0625 -3.5625 0.0625 0 0 Z M-0.5625 2.0625 C-0.8925 3.3825 -1.2225 4.7025 -1.5625 6.0625 C-0.5725 5.7325 0.4175 5.4025 1.4375 5.0625 C1.1075 4.0725 0.7775 3.0825 0.4375 2.0625 C0.1075 2.0625 -0.2225 2.0625 -0.5625 2.0625 Z " fill="#4E4E4E" transform="translate(297.5625,366.9375)"/>
<path d="M0 0 C1.98 0 3.96 0 6 0 C6.33 2.64 6.66 5.28 7 8 C4.69 8.33 2.38 8.66 0 9 C-0.84454356 5.62182575 -1.10844919 3.32534757 0 0 Z " fill="#515151" transform="translate(384,367)"/>
<path d="M0 0 C3 0.125 3 0.125 4 1.125 C4.1875 4.0625 4.1875 4.0625 4 7.125 C3.34 7.785 2.68 8.445 2 9.125 C-2.55555556 8.56944444 -2.55555556 8.56944444 -4 7.125 C-4.125 4.125 -4.125 4.125 -4 1.125 C-3 0.125 -3 0.125 0 0 Z " fill="#525252" transform="translate(373,366.875)"/>
<path d="M0 0 C3.0625 -0.25 3.0625 -0.25 6 0 C7 1 7 1 7.1875 3.9375 C7 7 7 7 5 9 C1.875 8.625 1.875 8.625 -1 8 C-1.625 5.6875 -1.625 5.6875 -2 3 C-1.34 2.01 -0.68 1.02 0 0 Z M2 2 C2 3.32 2 4.64 2 6 C2.66 6 3.32 6 4 6 C4 4.68 4 3.36 4 2 C3.34 2 2.68 2 2 2 Z " fill="#515151" transform="translate(258,367)"/>
<path d="M0 0 C2.33294775 -0.04241723 4.66702567 -0.04092937 7 0 C8 1 8 1 8.25 3.9375 C8.1675 4.948125 8.085 5.95875 8 7 C5 9 5 9 2.3125 8.625 C1.549375 8.41875 0.78625 8.2125 0 8 C-1.125 2.25 -1.125 2.25 0 0 Z M3 2 C3 3.32 3 4.64 3 6 C3.66 6 4.32 6 5 6 C5 4.68 5 3.36 5 2 C4.34 2 3.68 2 3 2 Z " fill="#515151" transform="translate(224,367)"/>
<path d="M0 0 C3.0625 -0.25 3.0625 -0.25 6 0 C7 1 7 1 7.1875 3.9375 C7 7 7 7 5 9 C1.875 8.625 1.875 8.625 -1 8 C-1.625 5.6875 -1.625 5.6875 -2 3 C-1.34 2.01 -0.68 1.02 0 0 Z M2 2 C2 3.32 2 4.64 2 6 C2.66 6 3.32 6 4 6 C4 4.68 4 3.36 4 2 C3.34 2 2.68 2 2 2 Z " fill="#515151" transform="translate(106,367)"/>
<path d="M0 0 C1.98 0 3.96 0 6 0 C6.82638376 2.89234315 7 4.88742431 7 8 C5.02 8.33 3.04 8.66 1 9 C-0.61949011 6.42786866 -1.04408751 5.32330841 -0.625 2.25 C-0.41875 1.5075 -0.2125 0.765 0 0 Z " fill="#4D4D4D" transform="translate(437,367)"/>
<path d="M0 0 C1.98 0 3.96 0 6 0 C6.82638376 2.89234315 7 4.88742431 7 8 C5.02 8.33 3.04 8.66 1 9 C-0.61949011 6.42786866 -1.04408751 5.32330841 -0.625 2.25 C-0.41875 1.5075 -0.2125 0.765 0 0 Z " fill="#4D4D4D" transform="translate(334,367)"/>
<path d="M0 0 C6.15234375 -0.09765625 6.15234375 -0.09765625 8 0 C9 1 9 1 9.0625 4.5625 C9.041875 5.696875 9.02125 6.83125 9 8 C8.01 8 7.02 8 6 8 C6 6.02 6 4.04 6 2 C5.34 2 4.68 2 4 2 C3.67 3.98 3.34 5.96 3 8 C2.01 8 1.02 8 0 8 C0 5.36 0 2.72 0 0 Z " fill="#525252" transform="translate(171,367)"/>
<path d="M0 0 C2.97 0 5.94 0 9 0 C9 0.99 9 1.98 9 3 C8.01 3 7.02 3 6 3 C6 5.64 6 8.28 6 11 C5.01 11 4.02 11 3 11 C3 8.36 3 5.72 3 3 C2.01 3 1.02 3 0 3 C0 2.01 0 1.02 0 0 Z " fill="#535353" transform="translate(209,364)"/>
<path d="M0 0 C0.99 0 1.98 0 3 0 C3 2.97 3 5.94 3 9 C4.98 9 6.96 9 9 9 C9 9.66 9 10.32 9 11 C6.03 11 3.06 11 0 11 C0 7.37 0 3.74 0 0 Z " fill="#525252" transform="translate(355,364)"/>
<path d="M0 0 C0.99 0 1.98 0 3 0 C3 3.63 3 7.26 3 11 C2.01 11 1.02 11 0 11 C0 7.37 0 3.74 0 0 Z " fill="#535353" transform="translate(162,364)"/>
<path d="M0 0 C1.98 0 3.96 0 6 0 C6 0.66 6 1.32 6 2 C5.34 2 4.68 2 4 2 C3.67 3.98 3.34 5.96 3 8 C2.01 8 1.02 8 0 8 C0 5.36 0 2.72 0 0 Z " fill="#525252" transform="translate(282,367)"/>
<path d="M0 0 C1.98 0 3.96 0 6 0 C6 0.66 6 1.32 6 2 C5.34 2 4.68 2 4 2 C3.67 3.98 3.34 5.96 3 8 C2.01 8 1.02 8 0 8 C0 5.36 0 2.72 0 0 Z " fill="#525252" transform="translate(271,367)"/>
<path d="M0 0 C1.65 0 3.3 0 5 0 C4.34 2.64 3.68 5.28 3 8 C2.01 8 1.02 8 0 8 C0 5.36 0 2.72 0 0 Z " fill="#525252" transform="translate(426,367)"/>
<path d="M0 0 C1.65 0 3.3 0 5 0 C4.34 2.64 3.68 5.28 3 8 C2.01 8 1.02 8 0 8 C0 5.36 0 2.72 0 0 Z " fill="#535353" transform="translate(151,367)"/>
<path d="M0 0 C0.99 0 1.98 0 3 0 C3 1.65 3 3.3 3 5 C2.01 5 1.02 5 0 5 C0 3.35 0 1.7 0 0 Z " fill="#515151" transform="translate(325,364)"/>
</svg>
