<svg width="107" height="34" viewBox="0 0 107 34" fill="none" xmlns="http://www.w3.org/2000/svg">
<path d="M4.79999 5.632V8.8C6.04799 6.784 8.12799 5.312 11.104 5.312C15.456 5.312 17.856 8.48 17.856 13.312V26.432H13.056V13.856C13.056 10.976 11.84 9.408 9.11999 9.408C5.50399 9.408 4.79999 12.16 4.79999 14.016V26.432H-7.15256e-06V5.632H4.79999ZM34.5765 26.432V23.264C33.3285 25.28 31.2485 26.752 28.2725 26.752C23.9205 26.752 21.5205 23.584 21.5205 18.752V5.632H26.3205V18.208C26.3205 21.088 27.5365 22.656 30.2565 22.656C33.8725 22.656 34.5765 19.904 34.5765 18.048V5.632H39.3765V26.432H34.5765ZM56.833 -1.90735e-06H61.633V26.432H56.833V23.904C55.873 25.344 54.049 26.752 50.913 26.752C45.793 26.752 42.721 23.168 42.721 17.952V13.92C42.721 9.024 45.761 5.312 50.849 5.312C53.889 5.312 55.745 6.656 56.833 8V-1.90735e-06ZM47.681 17.728C47.681 20.32 48.993 22.624 52.257 22.624C55.169 22.624 56.609 20.736 56.833 18.4V13.632C56.609 11.296 55.201 9.44 52.257 9.44C48.993 9.44 47.681 11.712 47.681 14.336V17.728ZM79.14 26.048V23.872C78.18 25.312 76.356 26.752 73.188 26.752C68.068 26.752 64.996 23.168 64.996 17.952V13.92C64.996 9.024 68.036 5.312 73.124 5.312C76.196 5.312 78.052 6.656 79.14 8.032V5.632H83.94V26.4C83.94 31.168 82.468 33.664 77.092 33.664H66.116V29.504H76.228C78.564 29.504 79.14 28.544 79.14 26.048ZM69.956 17.728C69.956 20.32 71.268 22.624 74.532 22.624C77.732 22.624 79.14 20.352 79.14 17.728V14.304C79.14 11.68 77.764 9.44 74.532 9.44C71.268 9.44 69.956 11.712 69.956 14.336V17.728ZM87.239 17.216V14.784C87.239 8.96 90.375 5.312 96.935 5.312C102.887 5.312 106.215 8.704 106.215 14.912V17.216H92.231V17.696C92.231 20.64 93.511 22.624 96.967 22.624C99.591 22.624 100.583 21.44 100.807 20.064L100.871 19.328H106.087L106.055 19.648C105.671 23.904 102.663 26.752 96.935 26.752C90.375 26.752 87.239 23.104 87.239 17.216ZM92.263 13.728H101.223L101.191 12.864C100.807 10.656 99.335 9.44 96.775 9.44C93.767 9.44 92.455 11.168 92.263 13.728Z" fill="white"/>
</svg>
