<?xml version="1.0" encoding="utf-8"?><!-- Uploaded to: SVG Repo, www.svgrepo.com, Generator: SVG Repo Mixer Tools -->
<svg fill="#000000" width="800px" height="800px" viewBox="0 0 24 24" id="smart-home" data-name="Flat Color" xmlns="http://www.w3.org/2000/svg" class="icon flat-color"><path id="primary" d="M19.89,5.83,12.45,2.11a1,1,0,0,0-.9,0L4.11,5.83A2,2,0,0,0,3,7.62V21a1,1,0,0,0,1,1H20a1,1,0,0,0,1-1V7.62A2,2,0,0,0,19.89,5.83Z" style="fill: rgb(0, 0, 0);"></path><path id="secondary" d="M16.24,12.76a1,1,0,0,1-.71-.3,5,5,0,0,0-7.06,0,1,1,0,0,1-1.42-1.4,7,7,0,0,1,9.9,0,1,1,0,0,1,0,1.41A1,1,0,0,1,16.24,12.76Zm-2.13,2.55a1,1,0,0,0,0-1.42,3.06,3.06,0,0,0-4.26,0,1,1,0,1,0,1.44,1.4,1,1,0,0,1,1.38,0,1,1,0,0,0,1.42,0Z" style="fill: rgb(44, 169, 188);"></path></svg>