<?xml version="1.0" encoding="UTF-8"?>
<svg version="1.1" xmlns="http://www.w3.org/2000/svg" width="228" height="179">
<path d="M0 0 C75.24 0 150.48 0 228 0 C228 59.07 228 118.14 228 179 C152.76 179 77.52 179 0 179 C0 119.93 0 60.86 0 0 Z " fill="#F7F6F5" transform="translate(0,0)"/>
<path d="M0 0 C6.42097681 5.21175331 11.87679734 12.1076974 13.69921875 20.30859375 C13.72381714 22.30844247 13.72687862 24.30878503 13.69921875 26.30859375 C9.64276193 26.45722379 5.58736389 26.56593302 1.52880859 26.63818359 C0.14929594 26.66830679 -1.23002592 26.7092165 -2.60888672 26.76123047 C-4.59388217 26.83421877 -6.58029057 26.86488773 -8.56640625 26.89453125 C-9.76040039 26.92595215 -10.95439453 26.95737305 -12.18457031 26.98974609 C-15.30078125 26.30859375 -15.30078125 26.30859375 -17.60009766 23.37695312 C-18.16132324 22.36439453 -18.72254883 21.35183594 -19.30078125 20.30859375 C-24.8913046 15.48143504 -31.32965462 14.83186951 -38.42578125 14.74609375 C-39.17746582 14.73143066 -39.92915039 14.71676758 -40.70361328 14.70166016 C-47.13984733 14.81863135 -52.55998943 16.73910142 -57.30078125 21.18359375 C-58.72159673 24.20282664 -58.82996871 26.00117214 -58.30078125 29.30859375 C-54.83135032 34.18688312 -51.34182536 36.85469278 -46.09375 39.62109375 C-45.04987373 40.18957031 -45.04987373 40.18957031 -43.98490906 40.76953125 C-35.20846348 45.51176475 -26.28363395 49.98387928 -17.35620117 54.43359375 C-2.16314196 62.02106713 13.96220291 70.1541238 22.69921875 85.30859375 C23.04339844 85.9015625 23.38757813 86.49453125 23.7421875 87.10546875 C27.19118883 94.42447627 26.82605224 104.51477672 25.0078125 112.25 C20.15105907 125.23521106 12.07714166 133.10766681 -0.23828125 138.98828125 C-19.43995757 147.26655497 -44.75669687 147.37688985 -64.28613281 140.14746094 C-77.76234643 134.53618246 -88.61320912 124.49896795 -94.73828125 111.18359375 C-95.46031494 107.49319932 -95.33539346 104.0697867 -95.30078125 100.30859375 C-91.29989432 100.05971094 -87.3020446 99.8792294 -83.29516602 99.75927734 C-81.93564353 99.70925337 -80.57665212 99.64119701 -79.21899414 99.55419922 C-74.75270906 99.27536394 -70.65650058 99.22670912 -66.30078125 100.30859375 C-63.74367946 102.65880347 -62.26794297 104.84171816 -60.64257812 107.89892578 C-57.98295156 112.67522022 -53.82404169 113.85294598 -48.72265625 115.37890625 C-43.81841231 116.55885775 -39.01546647 116.69268861 -33.98828125 116.68359375 C-33.06345947 116.68198242 -32.1386377 116.68037109 -31.18579102 116.67871094 C-23.36874274 116.53844549 -16.07502926 115.74335913 -10.0859375 110.29296875 C-7.97811884 107.94992306 -7.37199512 106.80709082 -6.92578125 103.68359375 C-7.54130662 98.14386545 -10.01337616 94.21830842 -14.296875 90.64208984 C-21.33677171 85.71089744 -28.77213096 81.74155303 -36.42578125 77.87109375 C-37.72282617 77.20768127 -39.01953613 76.54361352 -40.31591797 75.87890625 C-46.3481055 72.7920683 -52.40139158 69.7500547 -58.48388672 66.76342773 C-72.51879548 59.86243098 -86.47830369 52.1886734 -91.91015625 36.5546875 C-93.52028191 27.29646494 -93.80115566 16.25898744 -88.30078125 8.30859375 C-80.01866052 -2.97186436 -68.66027033 -9.73739607 -54.95507812 -12.29882812 C-35.10414841 -15.2348376 -16.22442875 -11.92729652 0 0 Z " fill="#040404" transform="translate(115.30078125,22.69140625)"/>
<path d="M0 0 C32.01 0 64.02 0 97 0 C97 9.24 97 18.48 97 28 C76.21 28 55.42 28 34 28 C34 39.88 34 51.76 34 64 C32.02 64 30.04 64 28 64 C27 63 27 63 26.875 60.6875 C26.98698974 58.27972065 27.37890356 56.31185898 28 54 C26.59248779 53.13083113 25.1735479 52.28014851 23.75 51.4375 C22.56664062 50.72400391 22.56664062 50.72400391 21.359375 49.99609375 C19.08938676 48.81494235 19.08938676 48.81494235 16.828125 49.22265625 C14.80030011 49.95034909 14.80030011 49.95034909 13 52 C11 51.875 11 51.875 9 51 C8.72414062 50.33742187 8.44828125 49.67484375 8.1640625 48.9921875 C7.18112341 46.78071039 7.18112341 46.78071039 4.8359375 46.390625 C4.02382812 46.34421875 3.21171875 46.2978125 2.375 46.25 C1.14910156 46.16492187 1.14910156 46.16492187 -0.1015625 46.078125 C-0.72804688 46.05234375 -1.35453125 46.0265625 -2 46 C-2 44.68 -2 43.36 -2 42 C2.95 42 7.9 42 13 42 C11.4310229 30.75566414 9.56818907 21.92050959 1.390625 13.69140625 C0 11 0 11 0 0 Z " fill="#060606" transform="translate(123,12)"/>
<path d="M0 0 C0.66 0 1.32 0 2 0 C2 10.23 2 20.46 2 31 C22.79 31 43.58 31 65 31 C65 40.33928382 64.54842163 49.6768323 64 59 C32.32 59 0.64 59 -32 59 C-28.96564873 55.96564873 -26.33659423 53.41704531 -23.0625 50.8125 C-16.06967557 44.71686814 -11.38749175 36.18331401 -10 27 C-9.52785098 19.42288266 -9.16515808 11.41335323 -11 4 C-9.741875 4.0825 -8.48375 4.165 -7.1875 4.25 C-5.00676926 4.31722799 -5.00676926 4.31722799 -3 4 C-1.08743288 2.11922127 -1.08743288 2.11922127 0 0 Z " fill="#060607" transform="translate(156,106)"/>
<path d="M0 0 C17.82 0 35.64 0 54 0 C54 8.58 54 17.16 54 26 C46.38187394 26.11473081 38.76673893 26.21429514 31.1484375 26.2746582 C28.55653737 26.29981755 25.96470828 26.33394851 23.37304688 26.37719727 C19.64956139 26.43778231 15.92701305 26.46619646 12.203125 26.48828125 C10.46231659 26.52699089 10.46231659 26.52699089 8.68634033 26.56648254 C0.66413705 26.56928563 0.66413705 26.56928563 -2.74707031 23.64526367 C-4.08396224 20.82273366 -4.35224435 19.08213806 -4 16 C-2.35 15.34 -0.7 14.68 1 14 C0.67 9.38 0.34 4.76 0 0 Z " fill="#030303" transform="translate(159,76)"/>
<path d="M0 0 C1.9375 1.4375 1.9375 1.4375 3 3 C3 3.66 3 4.32 3 5 C3.8971875 4.95810547 4.794375 4.91621094 5.71875 4.87304688 C9.08131679 4.7358347 12.44087044 4.6360305 15.80517578 4.56054688 C17.25454933 4.52056416 18.70360528 4.46615287 20.15185547 4.39648438 C32.28307052 3.8279643 32.28307052 3.8279643 36.609375 6.78125 C38.6875 8.96875 38.6875 8.96875 40.32421875 11.16992188 C42.47339181 13.51697917 43.87590646 13.69526891 47 14 C48.32 14 49.64 14 51 14 C51.226875 13.2575 51.45375 12.515 51.6875 11.75 C53.34868701 8.26941769 54.64423922 6.92777747 58 5 C62.26910509 4.03012564 65.63069993 4.33917289 69.58203125 6.24609375 C71.91044526 7.71647803 74.02374528 9.07980924 76 11 C76 11.99 76 12.98 76 14 C76.763125 13.938125 77.52625 13.87625 78.3125 13.8125 C81 14 81 14 82.8125 15.3125 C84 17 84 17 84 20 C81.69 20 79.38 20 77 20 C76.773125 20.7425 76.54625 21.485 76.3125 22.25 C74.47907322 26.09146563 71.77023176 28.11488412 68 30 C63.22949789 30.51504536 59.27342471 30.68977172 55 28.375 C52.73129512 25.68091295 51.84939934 23.39759737 51 20 C50.31035156 20.10441406 49.62070313 20.20882812 48.91015625 20.31640625 C45.73262905 20.59100737 43.14506436 20.58485772 40 20 C37.94238281 18.00488281 37.94238281 18.00488281 36.015625 15.515625 C32.18061146 11.43928916 29.72759277 10.31525847 24.13671875 9.98046875 C21.65278784 10.00284651 19.16888657 10.07289522 16.6875 10.1875 C15.42615234 10.19458984 14.16480469 10.20167969 12.86523438 10.20898438 C6.26710967 10.03347724 6.26710967 10.03347724 0.73754883 13.00878906 C0.16415771 13.66588867 -0.4092334 14.32298828 -1 15 C-3.7639018 15.78274563 -6.21027184 15.65741545 -9 15 C-11.98202078 12.46528234 -12.83065071 10.81287661 -13.625 7 C-12.90369687 3.53774496 -11.63683741 1.94637188 -8.7890625 -0.15234375 C-5.62495258 -1.65149627 -3.24078271 -0.9783495 0 0 Z " fill="#151513" transform="translate(18,104)"/>
<path d="M0 0 C3.3125 -0.3125 3.3125 -0.3125 7 0 C8 1.66666667 9 3.33333333 10 5 C13.54230809 5.58342353 13.54230809 5.58342353 17 5 C17.66 4.34 18.32 3.68 19 3 C22 3.125 22 3.125 25 4 C26.4375 5.6875 26.4375 5.6875 27 8 C26.7215625 9.5159375 26.7215625 9.5159375 26.4375 11.0625 C26.293125 12.031875 26.14875 13.00125 26 14 C27.35444301 15.77190909 27.35444301 15.77190909 29 17 C29 17.66 29 18.32 29 19 C31.31 19 33.62 19 36 19 C36.495 22.96 36.495 22.96 37 27 C36.21625 27.144375 35.4325 27.28875 34.625 27.4375 C31.84843237 28.71536857 31.84843237 28.71536857 31.22265625 31.13671875 C30.73164391 33.41974691 30.31887599 35.68695927 30 38 C31.32 38.33 32.64 38.66 34 39 C33.40072174 42.35595828 32.15377564 44.37801226 30 47 C21.63365571 44.88259188 21.63365571 44.88259188 19.25 41.5625 C19 39 19 39 20.3125 36.875 C20.869375 36.25625 21.42625 35.6375 22 35 C23.56410563 30.30768311 23.96391785 25.87389447 23 21 C20.05781747 17.07252844 16.64146314 14.54715438 12 13 C5.55442185 12.46286849 2.32182468 13.30730533 -3 17 C-3.33 17.66 -3.66 18.32 -4 19 C-8.5073626 18.46972205 -11.4539073 16.80388725 -15 14 C-15 13.01 -15 12.02 -15 11 C-12 9 -12 9 -9.0625 9.5625 C-6.06491538 10.26743941 -6.06491538 10.26743941 -3.75 9 C-1.34993527 6.25706889 -0.79494457 3.51100519 0 0 Z " fill="#11100E" transform="translate(121,61)"/>
<path d="M0 0 C0.28875 0.66 0.5775 1.32 0.875 2 C1.431875 2.99 1.431875 2.99 2 4 C5.56206661 4.81870185 5.56206661 4.81870185 9 5 C9.66 3.35 10.32 1.7 11 0 C14.34373475 0.55728913 17.03312999 1.35173889 20 3 C19.93489583 5.01822917 19.86979167 7.03645833 19.8046875 9.0546875 C19.81668311 11.23863645 19.81668311 11.23863645 22 13 C24.22128555 13.02308597 24.22128555 13.02308597 26.625 12.625 C27.44226563 12.51414062 28.25953125 12.40328125 29.1015625 12.2890625 C29.72804687 12.19367187 30.35453125 12.09828125 31 12 C33.9596603 16.52653928 33.9596603 16.52653928 35 19 C34.375 21.375 34.375 21.375 33 23 C28.8140847 25.09295765 23.54804189 24.56303132 19 24 C16.6875 21.75 16.6875 21.75 15 19 C9.73668255 14.94285947 5.48688682 14.39513122 -1.1171875 14.59375 C-5.2250527 15.17263615 -7.61908541 16.64805942 -11 19 C-11.66 19 -12.32 19 -13 19 C-13 15.7 -13 12.4 -13 9 C-12.34 8.67 -11.68 8.34 -11 8 C-10.59270772 5.67843403 -10.25561323 3.3431213 -10 1 C-6.29223511 -0.80091438 -3.93496467 -1.48890555 0 0 Z " fill="#100F0E" transform="translate(177,46)"/>
<path d="M0 0 C3.68718972 1.13967682 5.24659961 1.90760344 7.4375 5.0625 C7.6875 7.8125 7.6875 7.8125 7.4375 10.0625 C7.97375 10.289375 8.51 10.51625 9.0625 10.75 C11.4375 12.0625 11.4375 12.0625 13.62890625 14.61328125 C19.12700865 19.25345828 28.01315974 17.62989295 34.84350586 17.53271484 C43.45981595 17.44558931 50.33018868 17.6655959 57.4375 23.0625 C57.4375 23.3925 57.4375 23.7225 57.4375 24.0625 C51.62104948 24.26139224 45.80660887 24.40595279 39.98754883 24.50195312 C38.01161186 24.54199826 36.03590917 24.59645419 34.06079102 24.66601562 C17.47937422 25.23504734 17.47937422 25.23504734 12.28588867 22.25268555 C9.953125 20.04296875 9.953125 20.04296875 8.21582031 17.81323242 C6.49731869 15.76466956 6.49731869 15.76466956 3.48583984 15.70654297 C1.60147406 15.81750153 -0.28200827 15.94486758 -2.1640625 16.08984375 C-4.5625 16.0625 -4.5625 16.0625 -7.25 13.9375 C-8.80163521 10.53868001 -9.25366287 8.74870197 -8.5625 5.0625 C-5.88937913 1.25532785 -4.71546409 0.08272744 0 0 Z " fill="#21201E" transform="translate(10.5625,77.9375)"/>
<path d="M0 0 C0 0.99 0 1.98 0 3 C-0.66 3 -1.32 3 -2 3 C-1.34 5.97 -0.68 8.94 0 12 C-4.29032258 15.06451613 -4.29032258 15.06451613 -7.75 14.75 C-10 14 -10 14 -11 13 C-13.67058851 12.85884839 -16.32432238 12.95752893 -19 13 C-19.33 14.98 -19.66 16.96 -20 19 C-22.97 19 -25.94 19 -29 19 C-29.391875 17.865625 -29.78375 16.73125 -30.1875 15.5625 C-31.58610882 11.79660949 -31.58610882 11.79660949 -34.6875 11.0625 C-35.450625 11.041875 -36.21375 11.02125 -37 11 C-37 7.7 -37 4.4 -37 1 C-33.87709365 1.48578543 -31.00419641 1.9986012 -28 3 C-23.03278117 3.40548725 -18.51666958 3.75833479 -14 1.5 C-9.45960635 -0.77019683 -4.98714096 -0.23959574 0 0 Z " fill="#0D0D0C" transform="translate(200,107)"/>
<path d="M0 0 C0.33 0 0.66 0 1 0 C1 11.55 1 23.1 1 35 C19.48 35 37.96 35 57 35 C57 44.24 57 53.48 57 63 C48.09 63 39.18 63 30 63 C30 62.67 30 62.34 30 62 C38.58 62 47.16 62 56 62 C56 53.42 56 44.84 56 36 C38.18 36 20.36 36 2 36 C2.66 38.64 3.32 41.28 4 44 C4.125 47.5 4.125 47.5 4 50 C2.02 50.66 0.04 51.32 -2 52 C-2 53.65 -2 55.3 -2 57 C-2.66 56.01 -3.32 55.02 -4 54 C-4.33 55.65 -4.66 57.3 -5 59 C-5.33 59 -5.66 59 -6 59 C-6.25 52.375 -6.25 52.375 -4 49 C-1.875 48.3125 -1.875 48.3125 0 48 C0 45.36 0 42.72 0 40 C-1.60875 40.1546875 -1.60875 40.1546875 -3.25 40.3125 C-7 40 -7 40 -9.5 38 C-11.58491864 33.83016273 -10.91882847 31.51757331 -10 27 C-12.76988076 24.68456793 -12.76988076 24.68456793 -15.625 25.3125 C-17.93501965 25.7741514 -17.93501965 25.7741514 -19 27 C-22.375 27.375 -22.375 27.375 -26 27 C-27.8125 24.625 -27.8125 24.625 -29 22 C-31.35953094 19.64046906 -32.77895617 19.50858587 -36 19 C-36 18.67 -36 18.34 -36 18 C-32.94925785 17.71219414 -30.03816258 17.54212089 -27 18 C-24.9375 20.5 -24.9375 20.5 -24 23 C-21.13275314 22.42655063 -20.1385485 22.1385485 -18 20 C-12.90937354 20.14972431 -9.10643975 23.28557373 -5 26 C-5.33 28.97 -5.66 31.94 -6 35 C-4.02 35.33 -2.04 35.66 0 36 C0 24.12 0 12.24 0 0 Z " fill="#A8A6A4" transform="translate(157,40)"/>
<path d="M0 0 C3.375 1.0625 3.375 1.0625 5.25 3.1875 C6.375 6.0625 6.375 6.0625 6.46875 9.1953125 C7.78192333 14.79894008 11.04592174 17.77384253 15 21.8125 C15.69996094 22.56660156 16.39992188 23.32070312 17.12109375 24.09765625 C21.26081289 28.42170426 24.6728769 31.1767585 30.375 33.0625 C30.375 33.3925 30.375 33.7225 30.375 34.0625 C26.15409382 34.85806347 22.57968692 35.02758962 18.375 34.0625 C13.14070118 29.85530887 9.24272303 24.70874554 5.37890625 19.234375 C2.9865946 16.6415382 1.76361046 16.36957593 -1.6875 16 C-6.18920176 15.50582823 -6.18920176 15.50582823 -8.43359375 13.22265625 C-10.29124067 9.8545292 -9.65870635 7.68047223 -8.625 4.0625 C-5.76696098 0.70010115 -4.43292027 0.07642966 0 0 Z " fill="#1C1C1B" transform="translate(11.625,53.9375)"/>
<path d="M0 0 C6.92186404 4.51425916 6.92186404 4.51425916 8.875 7.875 C9.72864928 13.10921795 9.85450646 17.40574032 6.875 21.875 C5.5 23.625 5.5 23.625 3.875 24.875 C1.7734375 24.453125 1.7734375 24.453125 -0.125 23.875 C-0.09019531 22.97136719 -0.05539063 22.06773438 -0.01953125 21.13671875 C0.00753906 19.95722656 0.03460938 18.77773437 0.0625 17.5625 C0.09730469 16.39074219 0.13210937 15.21898437 0.16796875 14.01171875 C0.12970719 10.93479987 0.12970719 10.93479987 -1.3828125 8.9765625 C-4.59280079 6.94692865 -7.40658685 7.57988785 -11.125 7.875 C-11.785 8.535 -12.445 9.195 -13.125 9.875 C-14.115 9.875 -15.105 9.875 -16.125 9.875 C-16.455 8.555 -16.785 7.235 -17.125 5.875 C-17.785 5.875 -18.445 5.875 -19.125 5.875 C-17.92903444 2.28710331 -16.42641973 1.41417854 -13.15625 -0.328125 C-8.61301723 -2.11047016 -4.58326461 -1.64997526 0 0 Z " fill="#D7D4CF" transform="translate(136.125,74.125)"/>
<path d="M0 0 C2.875 -0.1875 2.875 -0.1875 6 0 C6.66 0.99 7.32 1.98 8 3 C10.05925139 3.72382467 10.05925139 3.72382467 12 4 C12 3.34 12 2.68 12 2 C13.32 2.33 14.64 2.66 16 3 C16.77321882 5.98241547 17.41196203 8.97580475 18 12 C19.65 12 21.3 12 23 12 C23.495 14.475 23.495 14.475 24 17 C22.68 17.33 21.36 17.66 20 18 C20 18.99 20 19.98 20 21 C18.1875 20.9375 18.1875 20.9375 16 20 C14.96898053 17.68020619 13.97063483 15.34570085 13 13 C11.48105194 10.90235835 11.48105194 10.90235835 9 10 C5.98202771 9.77025816 3.01966647 9.82578847 0 10 C0 10.66 0 11.32 0 12 C-3.95820859 11.43454163 -6.6659053 10.19097652 -10 8 C-9.67 7.01 -9.34 6.02 -9 5 C-6.36 4.67 -3.72 4.34 -1 4 C-0.67 2.68 -0.34 1.36 0 0 Z " fill="#1C1B1A" transform="translate(83,52)"/>
<path d="M0 0 C3 2 3 2 4 5.8125 C4.30748251 9.32292527 4.05144909 9.92121858 2 13.0625 C-1 15 -1 15 -4.625 15.0625 C-8 14 -8 14 -10 12.375 C-11.45635054 8.91616747 -10.91305869 6.58701629 -10 3 C-7.66736113 -1.0173225 -4.26712609 -0.3809934 0 0 Z " fill="#F0EEE9" transform="translate(85,114)"/>
<path d="M0 0 C2.65305719 2.21088099 4.44872058 3.77985701 4.890625 7.30859375 C4.88546875 8.07300781 4.8803125 8.83742188 4.875 9.625 C4.88015625 10.38683594 4.8853125 11.14867188 4.890625 11.93359375 C4.5997292 14.40193018 3.85475656 16.045186 2.625 18.1875 C1.635 17.8575 0.645 17.5275 -0.375 17.1875 C-0.34019531 16.42824219 -0.30539063 15.66898438 -0.26953125 14.88671875 C-0.24246094 13.89285156 -0.21539062 12.89898437 -0.1875 11.875 C-0.15269531 10.88886719 -0.11789063 9.90273437 -0.08203125 8.88671875 C-0.15926932 6.19205785 -0.15926932 6.19205785 -1.6328125 4.3515625 C-4.81461193 2.22560683 -7.63652392 2.89079555 -11.375 3.1875 C-12.035 3.8475 -12.695 4.5075 -13.375 5.1875 C-14.365 5.1875 -15.355 5.1875 -16.375 5.1875 C-15.89463048 0.62398961 -15.89463048 0.62398961 -13.8125 -1.125 C-8.49996759 -2.62340658 -4.79210961 -2.57354034 0 0 Z " fill="#3A3835" transform="translate(136.375,78.8125)"/>
<path d="M0 0 C0.33 0 0.66 0 1 0 C1 4.62 1 9.24 1 14 C-30.68 14 -62.36 14 -95 14 C-90 9 -90 9 -87 8 C-87.66 9.32 -88.32 10.64 -89 12 C-44.945 12.495 -44.945 12.495 0 13 C0 8.71 0 4.42 0 0 Z " fill="#19191A" transform="translate(219,151)"/>
<path d="M0 0 C1.17546556 0.65102708 2.34561699 1.31228246 3.5 2 C3.5 2.66 3.5 3.32 3.5 4 C-3.76 4 -11.02 4 -18.5 4 C-16.5 0 -16.5 0 -14.875 -1.25 C-9.36393987 -2.99033478 -5.06452808 -2.53226404 0 0 Z " fill="#343433" transform="translate(186.5,66)"/>
<path d="M0 0 C1.2375 0.7425 1.2375 0.7425 2.5 1.5 C-0.43084633 2.47694878 -2.74776055 2.7297929 -5.8125 2.9375 C-9.99994756 3.28091501 -13.55658946 3.98330364 -17.5 5.5 C-18.16 5.5 -18.82 5.5 -19.5 5.5 C-18.30403444 1.91210331 -16.80141973 1.03917854 -13.53125 -0.703125 C-8.76688705 -2.57222123 -4.69494392 -2.01211882 0 0 Z " fill="#EEE9E2" transform="translate(136.5,74.5)"/>
<path d="M0 0 C3.04952874 -0.28769139 5.96333899 -0.46174631 9 0 C10.75 2.5 10.75 2.5 12 5 C15.45405002 5.54537632 18.61330515 4.77410168 22 4 C21.01 4.33 20.02 4.66 19 5 C17.79117904 7.00016466 17.79117904 7.00016466 17 9 C13.6875 9.3125 13.6875 9.3125 10 9 C8.1875 6.625 8.1875 6.625 7 4 C4.64046906 1.64046906 3.22104383 1.50858587 0 1 C0 0.67 0 0.34 0 0 Z " fill="#EDEAE6" transform="translate(121,58)"/>
<path d="M0 0 C0 0.66 0 1.32 0 2 C-0.62648437 2.04898438 -1.25296875 2.09796875 -1.8984375 2.1484375 C-2.71570313 2.22320312 -3.53296875 2.29796875 -4.375 2.375 C-5.18710938 2.44460937 -5.99921875 2.51421875 -6.8359375 2.5859375 C-9.20334191 2.82892588 -9.20334191 2.82892588 -11 5 C-11.99 5 -12.98 5 -14 5 C-13.67 3.35 -13.34 1.7 -13 0 C-8.37078475 -1.0161692 -4.65537393 -0.83796731 0 0 Z " fill="#1D1C1B" transform="translate(134,79)"/>
<path d="M0 0 C1.2065625 0.0309375 1.2065625 0.0309375 2.4375 0.0625 C3.0625 2.4375 3.0625 2.4375 3.4375 5.0625 C2.7775 5.7225 2.1175 6.3825 1.4375 7.0625 C-1.1875 6.6875 -1.1875 6.6875 -3.5625 6.0625 C-3.605221 4.39638095 -3.60313832 2.72867115 -3.5625 1.0625 C-2.5625 0.0625 -2.5625 0.0625 0 0 Z " fill="#DCDAD9" transform="translate(13.5625,107.9375)"/>
<path d="M0 0 C2.29633824 3.44450737 2.54016485 5.93812283 3 10 C1.35 10.33 -0.3 10.66 -2 11 C-2 12.65 -2 14.3 -2 16 C-2.66 15.01 -3.32 14.02 -4 13 C-4.33 14.65 -4.66 16.3 -5 18 C-5.33 18 -5.66 18 -6 18 C-6.25 11.375 -6.25 11.375 -4 8 C-1.875 7.3125 -1.875 7.3125 0 7 C0 4.69 0 2.38 0 0 Z " fill="#BAB6B2" transform="translate(157,81)"/>
<path d="M0 0 C1.67542976 0.28604898 3.34385343 0.61781233 5 1 C5 2.65 5 4.3 5 6 C2.625 6.625 2.625 6.625 0 7 C-0.66 6.34 -1.32 5.68 -2 5 C-1.46428571 1.46428571 -1.46428571 1.46428571 0 0 Z " fill="#E6E4DF" transform="translate(8,83)"/>
<path d="M0 0 C0.66 1.32 1.32 2.64 2 4 C1.0625 6 1.0625 6 -1 8 C-4.02534949 8.36475845 -6.96663814 8.22893297 -10 8 C-10 7.34 -10 6.68 -10 6 C-9.01 6 -8.02 6 -7 6 C-7 5.34 -7 4.68 -7 4 C-5.824375 3.8453125 -5.824375 3.8453125 -4.625 3.6875 C-1.66954819 3.22404978 -1.66954819 3.22404978 0 0 Z " fill="#D7D3CF" transform="translate(154,103)"/>
<path d="M0 0 C0 0.33 0 0.66 0 1 C-2.64 1.66 -5.28 2.32 -8 3 C-8 3.66 -8 4.32 -8 5 C-13.75 7 -13.75 7 -16 7 C-14.80550306 3.41650918 -13.30054082 2.55623389 -10.0546875 0.78515625 C-6.62677111 -0.52475096 -3.63316378 -0.25495886 0 0 Z " fill="#D2CEC9" transform="translate(133,73)"/>
<path d="M0 0 C1.67542976 0.28604898 3.34385343 0.61781233 5 1 C5.5625 2.9375 5.5625 2.9375 6 5 C5 6 5 6 2.4375 6.0625 C1.2309375 6.0315625 1.2309375 6.0315625 0 6 C-0.38218767 4.34385343 -0.71395102 2.67542976 -1 1 C-0.67 0.67 -0.34 0.34 0 0 Z " fill="#E1E0DF" transform="translate(8,59)"/>
<path d="M0 0 C0.99 0.33 1.98 0.66 3 1 C3.28571429 8.42857143 3.28571429 8.42857143 1 12 C0.01 11.67 -0.98 11.34 -2 11 C-1.34 7.37 -0.68 3.74 0 0 Z " fill="#0D0D0C" transform="translate(138,85)"/>
<path d="M0 0 C-1.39750048 3.15835107 -3.05198234 5.32272825 -5.5 7.75 C-6.41265625 8.67039062 -6.41265625 8.67039062 -7.34375 9.609375 C-9 11 -9 11 -11 11 C-9.60249952 7.84164893 -7.94801766 5.67727175 -5.5 3.25 C-4.8915625 2.63640625 -4.283125 2.0228125 -3.65625 1.390625 C-2 0 -2 0 0 0 Z " fill="#232525" transform="translate(39,20)"/>
<path d="M0 0 C0.98484375 0.02707031 1.9696875 0.05414063 2.984375 0.08203125 C3.73203125 0.11683594 4.4796875 0.15164062 5.25 0.1875 C5.25 1.1775 5.25 2.1675 5.25 3.1875 C0.3 3.1875 -4.65 3.1875 -9.75 3.1875 C-5.5452889 0.03396667 -4.89908143 -0.17496719 0 0 Z " fill="#484847" transform="translate(194.75,106.8125)"/>
<path d="M0 0 C0.66 0.33 1.32 0.66 2 1 C2 1.66 2 2.32 2 3 C2.66 3.33 3.32 3.66 4 4 C3.195625 4.268125 2.39125 4.53625 1.5625 4.8125 C0.716875 5.204375 -0.12875 5.59625 -1 6 C-1.33 6.99 -1.66 7.98 -2 9 C-2.66 8.34 -3.32 7.68 -4 7 C-4 6.01 -4 5.02 -4 4 C-2.68 3.67 -1.36 3.34 0 3 C0 2.01 0 1.02 0 0 Z " fill="#D7D3CF" transform="translate(107,66)"/>
<path d="M0 0 C0.33 0 0.66 0 1 0 C1 1.65 1 3.3 1 5 C1.99 5.33 2.98 5.66 4 6 C3.67 7.65 3.34 9.3 3 11 C2.67 10.01 2.34 9.02 2 8 C1.01 7.67 0.02 7.34 -1 7 C-0.67 4.69 -0.34 2.38 0 0 Z " fill="#ECE8E4" transform="translate(153,92)"/>
<path d="M0 0 C1.9375 0.75 1.9375 0.75 3.9375 2.75 C2.2875 2.75 0.6375 2.75 -1.0625 2.75 C-1.3925 3.74 -1.7225 4.73 -2.0625 5.75 C-3.0525 5.42 -4.0425 5.09 -5.0625 4.75 C-5.0625 3.76 -5.0625 2.77 -5.0625 1.75 C-2.0625 -0.25 -2.0625 -0.25 0 0 Z " fill="#2C2A28" transform="translate(111.0625,70.25)"/>
<path d="M0 0 C2.97 0 5.94 0 9 0 C9.66 1.65 10.32 3.3 11 5 C10.01 5.33 9.02 5.66 8 6 C7.4121875 5.0409375 7.4121875 5.0409375 6.8125 4.0625 C4.61527704 1.56221181 3.24208567 1.35049575 0 1 C0 0.67 0 0.34 0 0 Z " fill="#CFCBC7" transform="translate(121,58)"/>
<path d="M0 0 C0.33 0.66 0.66 1.32 1 2 C0.01 3.485 0.01 3.485 -1 5 C-2.99285937 5.37366113 -4.99363529 5.70740515 -7 6 C-7.66 6.66 -8.32 7.32 -9 8 C-9.33 6.35 -9.66 4.7 -10 3 C-7.98177083 3.09765625 -5.96354167 3.1953125 -3.9453125 3.29296875 C-3.30335938 3.19628906 -2.66140625 3.09960938 -2 3 C-1.34 2.01 -0.68 1.02 0 0 Z " fill="#3E3D3B" transform="translate(155,107)"/>
<path d="M0 0 C2.64 0 5.28 0 8 0 C8 0.99 8 1.98 8 3 C5.36 3 2.72 3 0 3 C0 2.01 0 1.02 0 0 Z " fill="#110F0E" transform="translate(122,55)"/>
<path d="M0 0 C-1.36983503 3.16115776 -1.9890638 3.9927092 -5 6 C-5.99 5.67 -6.98 5.34 -8 5 C-2.25 0 -2.25 0 0 0 Z " fill="#2A2C2B" transform="translate(132,159)"/>
<path d="M0 0 C1.32 0 2.64 0 4 0 C4 0.66 4 1.32 4 2 C3.01 2.33 2.02 2.66 1 3 C0.34 3.99 -0.32 4.98 -1 6 C-1.625 4.125 -1.625 4.125 -2 2 C-1.34 1.34 -0.68 0.68 0 0 Z " fill="#C6C2BF" transform="translate(8,83)"/>
</svg>
