<?xml version="1.0" encoding="UTF-8"?>
<svg version="1.1" xmlns="http://www.w3.org/2000/svg" width="1024" height="1024">
<path d="M0 0 C337.92 0 675.84 0 1024 0 C1024 337.92 1024 675.84 1024 1024 C686.08 1024 348.16 1024 0 1024 C0 686.08 0 348.16 0 0 Z " fill="#FDFDFD" transform="translate(0,0)"/>
<path d="M0 0 C-0.72316406 1.06927734 -0.72316406 1.06927734 -1.4609375 2.16015625 C-2.09257812 3.11792969 -2.72421875 4.07570313 -3.375 5.0625 C-4.00148437 6.00222656 -4.62796875 6.94195312 -5.2734375 7.91015625 C-9.9494984 16.27840098 -10.48319711 26.44764822 -8.3828125 35.7265625 C-4.28856439 46.27015719 6.14634249 51.00847718 15.6875 55.75 C16.88012519 56.35182187 18.07217606 56.95478314 19.26367188 57.55883789 C21.074683 58.47689765 22.88602732 59.39418324 24.69967651 60.30702209 C28.60859519 62.27760465 32.47915858 64.30889553 36.33203125 66.38671875 C37.29343018 66.90331055 38.2548291 67.41990234 39.24536133 67.95214844 C41.04714615 68.92370378 42.84533673 69.90196214 44.6394043 70.88769531 C45.83883667 71.52916504 45.83883667 71.52916504 47.0625 72.18359375 C48.10083984 72.74904907 48.10083984 72.74904907 49.16015625 73.32592773 C51.18506355 74.28458224 51.18506355 74.28458224 54 73 C51.62722182 67.97529326 48.78902145 66.43969017 44 64 C44.75 62.0625 44.75 62.0625 46 60 C48.95319818 58.76156206 49.87438528 58.95812843 53 60 C55.21429126 59.07191119 55.21429126 59.07191119 57 57 C58.28842537 53.40932038 58.28842537 53.40932038 59 50 C60.98 50 62.96 50 65 50 C65 49.01 65 48.02 65 47 C63.02 47.33 61.04 47.66 59 48 C59 46.35 59 44.7 59 43 C64.28 43 69.56 43 75 43 C72.19999572 27.9313384 72.19999572 27.9313384 63.6875 15.5625 C61 12 61 12 61 1 C93.34 1 125.68 1 159 1 C159 10.24 159 19.48 159 29 C138.21 29 117.42 29 96 29 C96 40.55 96 52.1 96 64 C114.48 64 132.96 64 152 64 C152 72.91 152 81.82 152 91 C134.18 91 116.36 91 98 91 C98 90.34 98 89.68 98 89 C97.01 89.495 97.01 89.495 96 90 C95.34786708 92.02463255 95.34786708 92.02463255 95 94 C95.66 94 96.32 94 97 94 C97 104.56 97 115.12 97 126 C117.79 126 138.58 126 160 126 C159.34 135.24 158.68 144.48 158 154 C126.32 154 94.64 154 62 154 C64.68617416 151.31382584 66.97367511 149.16166063 70 147 C69.67 146.01 69.34 145.02 69 144 C64.02241427 145.26484795 59.96948058 146.94945871 55.4375 149.4375 C48.49488467 153.10982303 41.77611046 154.75913131 34 156 C34 155.34 34 154.68 34 154 C35.18820725 152.84574153 36.37665995 151.69173455 37.56640625 150.5390625 C45.04788681 142.50717329 47.53278941 132.65143853 47.5 121.9375 C47.52835937 121.09123047 47.55671875 120.24496094 47.5859375 119.37304688 C47.60531141 113.09105647 46.38465478 108.61929926 42 104 C34.67565572 98.28415431 26.05712703 94.26779344 17.8125 90.0625 C16.61280537 89.44486724 15.41334479 88.82677967 14.21411133 88.20825195 C8.54149529 85.28844458 2.84746515 82.41864616 -2.88867188 79.62573242 C-31.89938653 65.47748668 -31.89938653 65.47748668 -37.8125 51.125 C-40.5224967 41.90786006 -40.57731995 31.19207253 -36.5 22.4375 C-29.43182141 10.46086405 -14.64557679 -0.86150452 0 0 Z " fill="#F4F2F1" transform="translate(241,434)"/>
<path d="M0 0 C1.20205078 -0.01160156 2.40410156 -0.02320313 3.64257812 -0.03515625 C14.97546592 0.00193995 24.90091764 2.21128445 33.9375 9.375 C43.79597257 20.39573459 44.1403188 34.22606447 44.17773438 48.28808594 C44.1873839 50.47370297 44.21844195 52.658355 44.25 54.84375 C44.34090336 66.95647292 43.6746229 80.77815144 35.25390625 90.2734375 C23.92603158 101.07708457 8.41708965 101.94266524 -6.45703125 101.625 C-17.16566999 101.1872874 -27.83824751 98.17532995 -35.375 90.1875 C-44.24498193 78.81131818 -44.40862652 63.88497236 -44.375 50.125 C-44.39111328 48.82175781 -44.40722656 47.51851563 -44.42382812 46.17578125 C-44.42989076 33.9413828 -44.00169267 19.6913738 -35.0625 10.375 C-24.70626867 1.10889828 -13.47715689 -0.13049426 0 0 Z " fill="#040404" transform="translate(560.0625,439.625)"/>
<path d="M0 0 C-0.72316406 1.06927734 -0.72316406 1.06927734 -1.4609375 2.16015625 C-2.09257812 3.11792969 -2.72421875 4.07570313 -3.375 5.0625 C-4.00148437 6.00222656 -4.62796875 6.94195312 -5.2734375 7.91015625 C-9.9494984 16.27840098 -10.48319711 26.44764822 -8.3828125 35.7265625 C-4.30561039 46.22625997 6.05903172 50.96184266 15.5625 55.6875 C16.75514394 56.29238583 17.94711046 56.898609 19.13842773 57.50610352 C21.5674676 58.7431786 23.99911023 59.97484417 26.43359375 61.20117188 C31.82381477 63.91989781 37.19716071 66.67005826 42.5625 69.4375 C43.47008057 69.89664795 44.37766113 70.3557959 45.31274414 70.82885742 C59.93491509 78.36470089 73.57961745 87.73885235 79 104 C79.86197189 117.11327723 78.65910659 127.93020128 70.81640625 138.9375 C61.41992815 149.60704933 47.46907354 153.58146563 34 156 C34 155.34 34 154.68 34 154 C35.18820725 152.84574153 36.37665995 151.69173455 37.56640625 150.5390625 C45.04788681 142.50717329 47.53278941 132.65143853 47.5 121.9375 C47.52835937 121.09123047 47.55671875 120.24496094 47.5859375 119.37304688 C47.60531141 113.09105647 46.38465478 108.61929926 42 104 C34.67565572 98.28415431 26.05712703 94.26779344 17.8125 90.0625 C16.61280537 89.44486724 15.41334479 88.82677967 14.21411133 88.20825195 C8.54149529 85.28844458 2.84746515 82.41864616 -2.88867188 79.62573242 C-31.89938653 65.47748668 -31.89938653 65.47748668 -37.8125 51.125 C-40.5224967 41.90786006 -40.57731995 31.19207253 -36.5 22.4375 C-29.43182141 10.46086405 -14.64557679 -0.86150452 0 0 Z " fill="#030303" transform="translate(241,434)"/>
<path d="M0 0 C6.6 0 13.2 0 20 0 C25.90359079 7.29267098 25.90359079 7.29267098 27.52734375 10.984375 C30.27708316 16.78821873 33.80658697 21.98614498 37.375 27.3125 C38.66050697 29.2701983 39.94306635 31.22983532 41.22265625 33.19140625 C41.85187988 34.15578613 42.48110352 35.12016602 43.12939453 36.11376953 C47.45786068 42.79232955 51.68683905 49.53442632 55.90942383 56.28027344 C56.91653752 57.86838825 57.95687059 59.43530588 59 61 C59.33 40.87 59.66 20.74 60 0 C66.6 0 73.2 0 80 0 C80 32.34 80 64.68 80 98 C60 98 60 98 54.53125 92.76171875 C53.09412384 90.41451951 51.78278421 88.11097895 50.5 85.6875 C49.76888024 84.44153772 49.03057787 83.19976421 48.28540039 81.9621582 C46.8100283 79.49054871 45.37507422 77.00225429 43.97314453 74.48828125 C41.32606528 69.76092918 38.37803039 65.23577117 35.4375 60.6875 C34.57936639 59.31807254 33.72385398 57.94699872 32.87109375 56.57421875 C28.96477948 50.35068949 24.97343172 44.18089379 21 38 C20.67 57.8 20.34 77.6 20 98 C13.4 98 6.8 98 0 98 C0 65.66 0 33.32 0 0 Z " fill="#020202" transform="translate(620,441)"/>
<path d="M0 0 C0.9583374 0.00523682 1.9166748 0.01047363 2.90405273 0.01586914 C3.83548096 0.0183667 4.76690918 0.02086426 5.7265625 0.0234375 C7.51404907 0.03709351 7.51404907 0.03709351 9.33764648 0.05102539 C11.37792781 0.06251358 13.41821119 0.07363984 15.45849609 0.08447266 C17.23071289 0.0941569 19.00292969 0.10384115 20.77514648 0.11352539 C28.66851495 19.38021533 36.443205 38.69261058 44.140625 58.03833008 C45.37209331 61.13259746 46.60668097 64.22559453 47.84375 67.31762695 C49.3652308 71.12057046 50.88173233 74.92546202 52.39455605 78.7318573 C52.96497073 80.16469753 53.53712193 81.59684778 54.11107445 83.02827454 C54.90259705 85.00338249 55.68767763 86.98093252 56.47119141 88.95922852 C56.91766525 90.07914185 57.3641391 91.19905518 57.82414246 92.35290527 C58.77514648 95.11352539 58.77514648 95.11352539 58.77514648 98.11352539 C51.18514648 98.11352539 43.59514648 98.11352539 35.77514648 98.11352539 C34.78514648 95.51477539 33.79514648 92.91602539 32.77514648 90.23852539 C32.4619043 89.4214209 32.14866211 88.60431641 31.82592773 87.76245117 C29.77514648 82.33574761 29.77514648 82.33574761 29.77514648 80.11352539 C16.24514648 80.44352539 2.71514648 80.77352539 -11.22485352 81.11352539 C-12.54485352 85.07352539 -13.86485352 89.03352539 -15.22485352 93.11352539 C-16.21485352 94.76352539 -17.20485352 96.41352539 -18.22485352 98.11352539 C-20.58496094 98.68115234 -20.58496094 98.68115234 -23.33032227 98.60180664 C-24.8046875 98.57763672 -24.8046875 98.57763672 -26.30883789 98.55297852 C-27.33299805 98.51108398 -28.3571582 98.46918945 -29.41235352 98.42602539 C-30.96599609 98.3921875 -30.96599609 98.3921875 -32.55102539 98.35766602 C-35.11041755 98.29869385 -37.66691303 98.21645106 -40.22485352 98.11352539 C-39.60167638 94.59907339 -38.69096211 91.4091035 -37.42407227 88.07446289 C-37.03364746 87.04377686 -36.64322266 86.01309082 -36.2409668 84.95117188 C-35.80252441 83.80849854 -35.36408203 82.6658252 -34.91235352 81.48852539 C-34.44812988 80.27173096 -33.98390625 79.05493652 -33.50561523 77.80126953 C-28.36189523 64.35565 -23.10093281 50.95496761 -17.84985352 37.55102539 C-17.19344376 35.8745694 -17.19344376 35.8745694 -16.52377319 34.16424561 C-15.25127884 30.9162299 -13.97673432 27.66902695 -12.70141602 24.42211914 C-12.3246019 23.46040298 -11.94778778 22.49868683 -11.55955505 21.50782776 C-3.16167103 0.16132745 -3.16167103 0.16132745 0 0 Z " fill="#040404" transform="translate(750.224853515625,440.886474609375)"/>
<path d="M0 0 C0 6.27 0 12.54 0 19 C-1.98902344 18.67773438 -3.97804688 18.35546875 -6.02734375 18.0234375 C-13.88599812 16.90543682 -21.62292443 16.63292768 -29.5625 16.625 C-30.90169938 16.60062433 -32.24089221 16.57588589 -33.58007812 16.55078125 C-35.49143555 16.54498047 -35.49143555 16.54498047 -37.44140625 16.5390625 C-38.58295166 16.53084473 -39.72449707 16.52262695 -40.90063477 16.51416016 C-44.68851959 17.10792863 -46.34801845 18.2672861 -49 21 C-49.75 24.5 -49.75 24.5 -49 28 C-46.21262927 31.4856147 -43.95643339 32.60546243 -39.6328125 33.4921875 C-38.58851074 33.7190625 -37.54420898 33.9459375 -36.46826172 34.1796875 C-34.81334717 34.52386719 -34.81334717 34.52386719 -33.125 34.875 C-4.95594166 41.20023034 -4.95594166 41.20023034 2.30078125 51.921875 C6.46723457 59.76797953 6.0165069 68.86653446 3.9375 77.3125 C1.27208127 84.87884994 -3.32464031 89.48780784 -10.5 92.9375 C-19.04718745 96.64547102 -28.16444139 96.22732542 -37.3125 96.25 C-38.30821014 96.25350464 -38.30821014 96.25350464 -39.32403564 96.25708008 C-50.22416627 96.27155612 -60.33308317 95.2456667 -71 93 C-71 86.73 -71 80.46 -71 74 C-58.65598262 74.89080538 -58.65598262 74.89080538 -54.85546875 75.5234375 C-49.35899484 76.20283954 -43.90796367 76.18429062 -38.375 76.1875 C-37.25609375 76.19974609 -36.1371875 76.21199219 -34.984375 76.22460938 C-33.36402344 76.22750977 -33.36402344 76.22750977 -31.7109375 76.23046875 C-30.73431152 76.23457764 -29.75768555 76.23868652 -28.75146484 76.24291992 C-25.76472151 75.97922785 -23.66032653 75.37598159 -21 74 C-18.88810256 70.83215384 -18.63162591 68.77034621 -18.34375 65.03515625 C-19.19209148 62.40428773 -20.5971623 61.33822882 -22.92675781 59.9309082 C-27.43033241 57.90875442 -32.31862849 57.08768468 -37.125 56.0625 C-62.25709956 50.32570734 -62.25709956 50.32570734 -69 41 C-73.26064143 33.57823751 -73.0501382 24.34572723 -72 16 C-70.2048059 9.37606622 -66.795031 4.96752066 -61.11328125 1.1796875 C-45.75117428 -7.39583247 -15.91097566 -7.95548783 0 0 Z " fill="#040404" transform="translate(500,444)"/>
<path d="M0 0 C32.34 0 64.68 0 98 0 C98 9.24 98 18.48 98 28 C77.21 28 56.42 28 35 28 C35 40.21 35 52.42 35 65 C33.02 65 31.04 65 29 65 C27 63 27 63 26.8125 60.625 C26.98035766 58.27499271 27.3974778 56.26548348 28 54 C26.76055724 53.13058506 25.50792941 52.27994543 24.25 51.4375 C23.20585937 50.72400391 23.20585937 50.72400391 22.140625 49.99609375 C20.06618351 48.80795962 20.06618351 48.80795962 17.859375 49.22265625 C15.80258238 49.94431989 15.80258238 49.94431989 14 52 C11.375 51.625 11.375 51.625 9 51 C8.67 49.35 8.34 47.7 8 46 C3.05 46.495 3.05 46.495 -2 47 C-2 45.35 -2 43.7 -2 42 C3.28 42 8.56 42 14 42 C11.19999572 26.9313384 11.19999572 26.9313384 2.6875 14.5625 C0 11 0 11 0 0 Z " fill="#040404" transform="translate(302,435)"/>
<path d="M0 0 C0 10.56 0 21.12 0 32 C21.12 32 42.24 32 64 32 C63.34 40.91 62.68 49.82 62 59 C30.32 59 -1.36 59 -34 59 C-31.39463097 56.39463097 -29.00694619 54.16041666 -26.1875 51.875 C-17.4910201 44.28180486 -12.93704484 35.24514526 -11 24 C-10.52119254 16.75107781 -11.28906625 10.04232553 -13 3 C-10.69 3.66 -8.38 4.32 -6 5 C-5.195625 4.175 -4.39125 3.35 -3.5625 2.5 C-1 0 -1 0 0 0 Z " fill="#020202" transform="translate(337,529)"/>
<path d="M0 0 C4.0393489 2.36065845 6.32660523 5.6204407 7.8046875 10.0546875 C7.92550069 12.68072691 7.99280201 15.27937817 8.0078125 17.90625 C8.01351257 18.67971771 8.01921265 19.45318542 8.02508545 20.25009155 C8.03453019 21.88920732 8.04106735 23.52834203 8.04492188 25.16748047 C8.05457117 27.64976229 8.08557487 30.13119569 8.1171875 32.61328125 C8.24457415 50.01122273 8.24457415 50.01122273 4.8046875 55.0546875 C0.31529807 59.52654816 -4.46770209 60.67526934 -10.66601562 60.68945312 C-11.52130859 60.66560547 -12.37660156 60.64175781 -13.2578125 60.6171875 C-14.11697266 60.62814453 -14.97613281 60.63910156 -15.86132812 60.65039062 C-21.78179422 60.58254724 -25.35152883 59.48385899 -30.1953125 56.0546875 C-34.26959919 50.62230524 -34.3620231 45.37769272 -34.3984375 38.78125 C-34.40413757 37.97988617 -34.40983765 37.17852234 -34.41571045 36.35287476 C-34.42514021 34.66006788 -34.43168638 32.96724281 -34.43554688 31.27441406 C-34.44525248 28.69563543 -34.47629419 26.11765427 -34.5078125 23.5390625 C-34.51434333 21.89062971 -34.51959349 20.24219125 -34.5234375 18.59375 C-34.5357843 17.8279361 -34.5481311 17.06212219 -34.56085205 16.27310181 C-34.538274 10.80065164 -33.51275616 6.59542651 -29.6953125 2.41015625 C-21.70459539 -3.81178233 -9.34643951 -3.70330622 0 0 Z " fill="#FCFCFB" transform="translate(573.1953125,460.9453125)"/>
<path d="M0 0 C10.23 0 20.46 0 31 0 C32.32 2.64 33.64 5.28 35 8 C41.38802824 14.69222006 48.80578094 17.14876884 57.93066406 17.47387695 C66.29275035 17.56101595 73.40959635 16.81609284 81 13 C82.13115234 12.43925781 82.13115234 12.43925781 83.28515625 11.8671875 C83.85105469 11.58101562 84.41695313 11.29484375 85 11 C85.7519027 19.27092967 83.05142172 27.56951977 78.25 34.3125 C77.18652222 35.5588855 76.10277472 36.78824519 75 38 C74.48308594 38.67417969 73.96617187 39.34835937 73.43359375 40.04296875 C70.31196936 43.54170212 67.98386579 44.84711599 63.3046875 45.57421875 C45.95551215 46.45312372 27.99295586 41.5301579 14.75 30.125 C5.89209171 21.98398296 1.46870223 11.74961782 0 0 Z " fill="#050505" transform="translate(198,545)"/>
<path d="M0 0 C7.26 0 14.52 0 22 0 C22 32.34 22 64.68 22 98 C14.74 98 7.48 98 0 98 C0 65.66 0 33.32 0 0 Z " fill="#030303" transform="translate(818,441)"/>
<path d="M0 0 C12.50283089 4.29451682 22.95661352 11.09775123 29.61328125 22.84765625 C31.83115664 27.48957574 33.11212383 30.83583534 33 36 C28.98029604 36.17395523 24.96206763 36.30047689 20.93945312 36.38452148 C19.57350479 36.41957479 18.20781634 36.46723632 16.84277344 36.52807617 C5.44063151 37.02327869 5.44063151 37.02327869 1.88305664 34.49633789 C0.42831334 32.73228039 -0.77747819 30.92827047 -2 29 C-9.39709136 23.7011859 -20.2793814 23.64125715 -29 25 C-32.40123738 26.24110808 -35.17320506 27.74500688 -38 30 C-40.80573939 24.38852123 -38.91456143 17.09050944 -37.046875 11.42578125 C-35.31378208 7.40992043 -32.90007674 4.24390027 -30 1 C-29.29875 0.175 -28.5975 -0.65 -27.875 -1.5 C-19.56909514 -5.83351558 -8.48210939 -2.55793407 0 0 Z " fill="#040404" transform="translate(276,436)"/>
<path d="M0 0 C18.15 0 36.3 0 55 0 C55 8.58 55 17.16 55 26 C47.40017902 26.11480092 39.80336646 26.21434459 32.20336914 26.2746582 C29.6183045 26.29980001 27.03331093 26.33391815 24.44848633 26.37719727 C20.73240626 26.43785922 17.01726614 26.46621419 13.30078125 26.48828125 C12.14540359 26.51408768 10.99002594 26.5398941 9.79963684 26.56648254 C0.85682855 26.56960752 0.85682855 26.56960752 -2.28051758 23.64526367 C-4 21 -4 21 -3.8125 18.1875 C-3.544375 17.465625 -3.27625 16.74375 -3 16 C-1.02 15.34 0.96 14.68 3 14 C2.68872484 12.41642541 2.37592711 10.83315007 2.0625 9.25 C1.88847656 8.36828125 1.71445312 7.4865625 1.53515625 6.578125 C1.07752809 4.37349297 0.54609986 2.18439943 0 0 Z " fill="#020201" transform="translate(338,499)"/>
<path d="M0 0 C3.65706566 0.68569981 5.38806014 1.95056014 8 4.5625 C8 5.2225 8 5.8825 8 6.5625 C8.8971875 6.52060547 9.794375 6.47871094 10.71875 6.43554688 C14.08131679 6.2983347 17.44087044 6.1985305 20.80517578 6.12304688 C22.25454933 6.08306416 23.70360528 6.02865287 25.15185547 5.95898438 C37.28162633 5.39053198 37.28162633 5.39053198 41.61816406 8.34814453 C43.703125 10.5390625 43.703125 10.5390625 45.34863281 12.74462891 C47.41880257 15.02352956 48.729542 15.21097363 51.75 15.4375 C54.01257728 15.3263761 54.01257728 15.3263761 56 14.5625 C58.39130445 11.76735402 58.39130445 11.76735402 60 8.5625 C62.89169053 6.29045744 66.12055257 6.0330461 69.765625 6.1015625 C74.12042137 6.99992958 77.64911833 9.73221483 81 12.5625 C81.495 13.5525 81.495 13.5525 82 14.5625 C82.969375 14.830625 83.93875 15.09875 84.9375 15.375 C88 16.5625 88 16.5625 89.375 19.1875 C89.58125 19.97125 89.7875 20.755 90 21.5625 C87.36 21.5625 84.72 21.5625 82 21.5625 C81.814375 22.47 81.62875 23.3775 81.4375 24.3125 C79.90181494 27.78448362 78.53040948 29.17549696 75.1328125 30.8671875 C71.07733257 32.18930367 67.18976209 32.25842658 63 31.5625 C59.26860016 29.54132509 58.27474315 28.24281637 56.6875 24.3125 C56.460625 23.405 56.23375 22.4975 56 21.5625 C55.31035156 21.66691406 54.62070313 21.77132812 53.91015625 21.87890625 C50.73262905 22.15350737 48.14506436 22.14735772 45 21.5625 C42.94238281 19.56738281 42.94238281 19.56738281 41.015625 17.078125 C37.18061146 13.00178916 34.72759277 11.87775847 29.13671875 11.54296875 C26.65278784 11.56534651 24.16888657 11.63539522 21.6875 11.75 C20.42615234 11.75708984 19.16480469 11.76417969 17.86523438 11.77148438 C11.26578487 11.59466354 11.26578487 11.59466354 5.73974609 14.57568359 C5.16562988 15.23133301 4.59151367 15.88698242 4 16.5625 C1.09215119 17.27132303 -0.942539 16.90221789 -4 16.5625 C-6.17476401 15.01911909 -6.81832637 13.92584727 -8 11.5625 C-8.54035146 7.50986402 -8.34199395 6.02519769 -5.875 2.6875 C-3 0.5625 -3 0.5625 0 0 Z " fill="#100F0E" transform="translate(192,525.4375)"/>
<path d="M0 0 C0.66 -0.66 1.32 -1.32 2 -2 C4.05859375 -2.23046875 4.05859375 -2.23046875 6.4375 -2.1875 C7.61119141 -2.17783203 7.61119141 -2.17783203 8.80859375 -2.16796875 C11 -2 11 -2 14 -1 C13.67 -0.01 13.34 0.98 13 2 C9.7 2 6.4 2 3 2 C2.34 3.65 1.68 5.3 1 7 C2.13888672 7.29003906 2.13888672 7.29003906 3.30078125 7.5859375 C4.29464844 7.84632813 5.28851562 8.10671875 6.3125 8.375 C7.29863281 8.63023437 8.28476562 8.88546875 9.30078125 9.1484375 C12 10 12 10 15 12 C15.6647482 18.09352518 15.6647482 18.09352518 13.625 20.875 C10.65568363 22.93068056 8.76602942 23.13573022 5.1875 23.125 C4.33542969 23.12757813 3.48335937 23.13015625 2.60546875 23.1328125 C0 23 0 23 -2.3046875 22.49609375 C-5.97508927 21.82052705 -9.59683476 21.89466922 -13.3125 21.9375 C-17.1178125 21.9684375 -17.1178125 21.9684375 -21 22 C-21 14.41 -21 6.82 -21 -1 C-18.2775 -1.20625 -15.555 -1.4125 -12.75 -1.625 C-11.89889648 -1.69541504 -11.04779297 -1.76583008 -10.17089844 -1.83837891 C-3.2672522 -2.30112923 -3.2672522 -2.30112923 0 0 Z " fill="#F6F4F3" transform="translate(826,557)"/>
<path d="M0 0 C2.31 0 4.62 0 7 0 C7.66 1.65 8.32 3.3 9 5 C11.97 5.33 14.94 5.66 18 6 C18.66 4.68 19.32 3.36 20 2 C25.72774417 4.43733794 25.72774417 4.43733794 26.9375 6.9375 C27 9 27 9 26.3125 10.9375 C25.75202013 13.19633998 25.75202013 13.19633998 27.5 15.625 C30.51302972 18.48737824 32.97915801 19.14943727 37 20 C37.495 23.465 37.495 23.465 38 27 C37.030625 27.33 36.06125 27.66 35.0625 28 C31.89278582 29.60746443 31.89278582 29.60746443 31.37890625 31.98046875 C31.14912749 33.97777644 31.06588203 35.99059814 31 38 C32.32 38.66 33.64 39.32 35 40 C33.68 42.31 32.36 44.62 31 47 C29.53890937 46.74445946 28.08111904 46.46999628 26.625 46.1875 C25.81289063 46.03667969 25.00078125 45.88585937 24.1640625 45.73046875 C22 45 22 45 20 42 C20.27871568 39.30574843 21.21508606 37.62144853 22.5625 35.25 C24.57469331 30.70069338 24.89232027 26.76675404 23.37890625 22.07421875 C21.27253336 17.70232481 18.50450678 15.55366401 14.078125 13.66015625 C10.16512434 12.41711657 6.89576093 12.17542106 3.078125 13.8359375 C0.41006647 15.30226719 -1.8454185 16.8454185 -4 19 C-8.06476236 18.69890649 -11.58868696 16.03366739 -15 14 C-14.25 12.0625 -14.25 12.0625 -13 10 C-10.04680182 8.76156206 -9.12561472 8.95812843 -6 10 C-3.78570874 9.07191119 -3.78570874 9.07191119 -2 7 C-0.71157463 3.40932038 -0.71157463 3.40932038 0 0 Z " fill="#0D0B0A" transform="translate(300,484)"/>
<path d="M0 0 C0.66 1.65 1.32 3.3 2 5 C5.37436186 5.33380814 5.37436186 5.33380814 9 5 C10.98239527 3.13875077 10.98239527 3.13875077 12 1 C15.14737182 1.69941596 18.02588876 2.76078698 21 4 C20.93489583 6.01822917 20.86979167 8.03645833 20.8046875 10.0546875 C20.81668311 12.23863645 20.81668311 12.23863645 23 14 C25.22128555 14.02308597 25.22128555 14.02308597 27.625 13.625 C28.44226563 13.51414062 29.25953125 13.40328125 30.1015625 13.2890625 C30.72804688 13.19367188 31.35453125 13.09828125 32 13 C36 19.75 36 19.75 36 22 C30.89689713 25.40206858 24.94122381 24.79126908 19 24 C16.66266408 22.72580015 15.19337795 21.48123911 13.4296875 19.5078125 C11.05916318 17.00775133 8.88178988 16.11775455 5.484375 15.6640625 C-1.0709104 15.57041557 -5.4433152 16.53229445 -11 20 C-11.66 20.33 -12.32 20.66 -13 21 C-13.05395478 19.37536158 -13.09277195 17.75021459 -13.125 16.125 C-13.14820313 15.22007812 -13.17140625 14.31515625 -13.1953125 13.3828125 C-13 11 -13 11 -11 9 C-10.59952556 6.67724823 -10.2602896 4.34260643 -10 2 C-6.49223216 0.39644899 -3.85645121 -0.22036864 0 0 Z " fill="#0B0A09" transform="translate(356,468)"/>
<path d="M0 0 C0.66 0 1.32 0 2 0 C3.71514746 4.64253012 5.42396827 9.28732072 7.12695312 13.93432617 C7.70724713 15.51504314 8.28926866 17.09512703 8.87304688 18.67456055 C9.71157911 20.94415928 10.54388408 23.21595792 11.375 25.48828125 C11.63748535 26.19463211 11.8999707 26.90098297 12.17041016 27.6287384 C13.23695003 30.56071715 14 32.85349781 14 36 C5.42 36 -3.16 36 -12 36 C-8.625 23.625 -8.625 23.625 -6.73828125 18.45703125 C-6.34189453 17.36455078 -5.94550781 16.27207031 -5.53710938 15.14648438 C-5.13298828 14.04626953 -4.72886719 12.94605469 -4.3125 11.8125 C-3.68891602 10.09836914 -3.68891602 10.09836914 -3.05273438 8.34960938 C-2.03907179 5.56495009 -1.02143976 2.78181383 0 0 Z " fill="#F5F5F5" transform="translate(758,466)"/>
<path d="M0 0 C2.91350927 2.26606276 4.63705249 3.91115746 5.8125 7.4375 C7.79716318 11.72019423 10.75912047 13.99003371 15 16 C20.14582014 16.75045508 25.25310938 16.66879975 30.4375 16.5625 C47.42907012 16.25711879 47.42907012 16.25711879 55 22 C55 22.33 55 22.66 55 23 C49.34428044 23.19917203 43.69064177 23.34358028 38.03222656 23.43945312 C36.11161706 23.47945238 34.19124757 23.53387329 32.27148438 23.60351562 C14.25470478 24.2402833 14.25470478 24.2402833 8.046875 18.984375 C7.3775293 18.24928711 6.70818359 17.51419922 6.01855469 16.75683594 C3.33697237 14.42293822 1.60635258 14.5831164 -1.875 14.75 C-3.24205078 14.85248047 -3.24205078 14.85248047 -4.63671875 14.95703125 C-7 15 -7 15 -9.6875 13.4375 C-11.52035388 10.03362851 -11.54407614 7.80853299 -11 4 C-8.115552 -0.49973888 -5.11460998 -0.80757 0 0 Z " fill="#1A1918" transform="translate(192,502)"/>
<path d="M0 0 C1.32 0 2.64 0 4 0 C4.66 1.65 5.32 3.3 6 5 C9.93075644 4.42547254 9.93075644 4.42547254 13 2 C17.61544691 2.53329744 21.20131405 5.53085413 25 8 C24.67 10.97 24.34 13.94 24 17 C26.31 17.66 28.62 18.32 31 19 C31 18.34 31 17.68 31 17 C49.48 17 67.96 17 87 17 C87 17.33 87 17.66 87 18 C69.18 18.33 51.36 18.66 33 19 C33.66 20.98 34.32 22.96 35 25 C35.07522969 27.33212027 35.09325876 29.6685311 35 32 C33.02 32.99 31.04 33.98 29 35 C29.57452746 38.93075644 29.57452746 38.93075644 32 42 C31.01 44.475 31.01 44.475 30 47 C30.66 47 31.32 47 32 47 C32 57.56 32 68.12 32 79 C52.79 79 73.58 79 95 79 C95 79.33 95 79.66 95 80 C73.88 80 52.76 80 31 80 C30.505 64.655 30.505 64.655 30 49 C28.35 50.65 26.7 52.3 25 54 C20.25 52.125 20.25 52.125 18 51 C17.67 51.66 17.34 52.32 17 53 C17.33 51.35 17.66 49.7 18 48 C21.465 48.495 21.465 48.495 25 49 C25.99 47.02 26.98 45.04 28 43 C27.01 42.34 26.02 41.68 25 41 C24.63671875 39.125 24.63671875 39.125 24.6875 37 C24.69136719 36.29875 24.69523437 35.5975 24.69921875 34.875 C25 33 25 33 27 31 C29.125 30.375 29.125 30.375 31 30 C30.67 27.69 30.34 25.38 30 23 C28.9275 22.773125 27.855 22.54625 26.75 22.3125 C22.53078488 20.83577471 21.09225933 19.92298624 19 16 C19.25 12.1875 19.25 12.1875 20 9 C18.02 8.01 16.04 7.02 14 6 C13.01 7.485 13.01 7.485 12 9 C5.91647856 9.66365688 5.91647856 9.66365688 3.1875 7.6875 C0 3.15789474 0 3.15789474 0 0 Z " fill="#BFBBBA" transform="translate(306,481)"/>
<path d="M0 0 C2.76276177 0.52268466 5.3260876 1.10869587 8 2 C12.44427004 2.32892188 16.64159844 2.4724875 20.875 1 C25.82667576 -0.58453624 30.84220521 -0.15022703 36 0 C35.7215625 1.3303125 35.7215625 1.3303125 35.4375 2.6875 C35.01957516 5.85178811 35.19222258 7.94839642 36 11 C30.25 15 30.25 15 28 15 C26.375 13 26.375 13 25 11 C21.39007621 11.65585189 21.39007621 11.65585189 18 13 C17.34444881 15.52733235 17.34444881 15.52733235 17 18 C14.03 18 11.06 18 8 18 C7.79375 17.05125 7.5875 16.1025 7.375 15.125 C6.29166667 11.70833333 6.29166667 11.70833333 2.875 10.625 C1.92625 10.41875 0.9775 10.2125 0 10 C0 6.7 0 3.4 0 0 Z " fill="#080706" transform="translate(343,531)"/>
<path d="M0 0 C2.4375 1.5 2.4375 1.5 4 4 C4.07992187 5.23363281 4.15984375 6.46726562 4.2421875 7.73828125 C4.79417142 12.74195014 7.20371701 15.24553914 10.6875 18.6875 C11.20505859 19.22955078 11.72261719 19.77160156 12.25585938 20.33007812 C18.64290423 27.39443703 18.64290423 27.39443703 27 31 C27 31.66 27 32.32 27 33 C22.22487516 33.66863855 17.83315551 34.26910766 13.72119141 31.42236328 C11.61555202 29.22075778 9.69707701 26.95600846 7.8125 24.5625 C3.63495592 18.86698726 3.63495592 18.86698726 -2.18017578 15.31860352 C-4.11321427 15.12363288 -6.05789815 15.05377492 -8 15 C-10.98873292 12.3848587 -11.86142688 10.84876034 -12.5 6.9375 C-12 4 -12 4 -10.5 1.625 C-6.98578942 -0.65923687 -4.0788726 -0.80404881 0 0 Z " fill="#121211" transform="translate(193,478)"/>
<path d="M0 0 C4.4859588 2.47862315 7.000882 5.75856782 8.875 10.5 C9.83725748 14.97066527 9.09531788 18.54481008 6.875 22.5 C6.215 23.49 5.555 24.48 4.875 25.5 C2.895 24.18 0.915 22.86 -1.125 21.5 C-1.00640625 20.82453125 -0.8878125 20.1490625 -0.765625 19.453125 C0.15359771 13.95297456 0.15359771 13.95297456 -1.625 8.875 C-5.02012912 7.00767898 -7.3087065 7.01428992 -11.125 7.5 C-12.8337646 8.87514541 -12.8337646 8.87514541 -14.125 10.5 C-16.3125 11.1875 -16.3125 11.1875 -18.125 11.5 C-18.125 12.49 -18.125 13.48 -18.125 14.5 C-19.445 13.84 -20.765 13.18 -22.125 12.5 C-21.795 11.51 -21.465 10.52 -21.125 9.5 C-21.51432856 7.35744207 -21.51432856 7.35744207 -22.125 5.5 C-20.85799277 4.5158875 -19.5862381 3.53788503 -18.3125 2.5625 C-17.60480469 2.01722656 -16.89710938 1.47195313 -16.16796875 0.91015625 C-11.11146992 -2.58008481 -5.49967629 -2.35997451 0 0 Z " fill="#E8E3DF" transform="translate(316.125,497.5)"/>
<path d="M0 0 C12 0 12 0 15.25 1.5 C17.3857435 4.55106214 17.59332007 6.43688877 17.375 10.09375 C16.87402011 12.64039777 15.82123981 14.17876019 14 16 C14.495 16.763125 14.99 17.52625 15.5 18.3125 C17 21 17 21 17 24 C16.01 24 15.02 24 14 24 C12.82421875 22.28515625 12.82421875 22.28515625 11.6875 20.0625 C9.64451439 16.45411732 9.64451439 16.45411732 5.6875 15 C4.800625 15 3.91375 15 3 15 C3 17.97 3 20.94 3 24 C2.01 24 1.02 24 0 24 C0 16.08 0 8.16 0 0 Z " fill="#232120" transform="translate(731,555)"/>
<path d="M0 0 C10.64453125 -0.390625 10.64453125 -0.390625 14 0 C16.75349957 2.56360304 16.97439048 3.75670956 17.375 7.5625 C17 11 17 11 15.5 12.9375 C15.005 13.288125 14.51 13.63875 14 14 C15.19899698 17.0831351 16.47700477 20.06279492 18 23 C16.68 23 15.36 23 14 23 C12.7265625 21.28515625 12.7265625 21.28515625 11.625 19.0625 C9.63301397 15.44566399 9.63301397 15.44566399 5.6875 14 C4.800625 14 3.91375 14 3 14 C3 16.97 3 19.94 3 23 C2.01 23 1.02 23 0 23 C0 15.41 0 7.82 0 0 Z " fill="#151211" transform="translate(567,556)"/>
<path d="M0 0 C0.99773438 0.02320313 1.99546875 0.04640625 3.0234375 0.0703125 C4.52777344 0.09738281 4.52777344 0.09738281 6.0625 0.125 C6.83335937 0.14820313 7.60421875 0.17140625 8.3984375 0.1953125 C8.3984375 0.8553125 8.3984375 1.5153125 8.3984375 2.1953125 C5.7584375 2.5253125 3.1184375 2.8553125 0.3984375 3.1953125 C0.72277258 8.54684135 3.89548574 11.47811293 7.3984375 15.1953125 C8.0584375 13.5453125 8.7184375 11.8953125 9.3984375 10.1953125 C10.3884375 10.1953125 11.3784375 10.1953125 12.3984375 10.1953125 C12.25535156 11.10023438 12.25535156 11.10023438 12.109375 12.0234375 C11.94308594 13.22226562 11.94308594 13.22226562 11.7734375 14.4453125 C11.65742187 15.23421875 11.54140625 16.023125 11.421875 16.8359375 C11.39524355 19.51683709 12.03251666 20.92225339 13.3984375 23.1953125 C12.0784375 23.1953125 10.7584375 23.1953125 9.3984375 23.1953125 C9.3984375 22.5353125 9.3984375 21.8753125 9.3984375 21.1953125 C8.6971875 21.6903125 7.9959375 22.1853125 7.2734375 22.6953125 C3.88593417 24.46270554 2.1649117 24.8230582 -1.6015625 24.1953125 C-5.00663305 21.67852123 -6.42620939 20.29126947 -7.1015625 16.0703125 C-6.6015625 13.1953125 -6.6015625 13.1953125 -5.0390625 11.8203125 C-3.37501171 10.32064693 -3.37501171 10.32064693 -3.6953125 8.30859375 C-3.86546875 7.23158203 -3.86546875 7.23158203 -4.0390625 6.1328125 C-4.2246875 4.8334375 -4.4103125 3.5340625 -4.6015625 2.1953125 C-2.6015625 0.1953125 -2.6015625 0.1953125 0 0 Z " fill="#1D1C1C" transform="translate(660.6015625,555.8046875)"/>
<path d="M0 0 C2.875 -0.1875 2.875 -0.1875 6 0 C6.66 0.99 7.32 1.98 8 3 C10.05925139 3.72382467 10.05925139 3.72382467 12 4 C12 3.34 12 2.68 12 2 C13.32 2.33 14.64 2.66 16 3 C16.12375 3.5775 16.2475 4.155 16.375 4.75 C17.03816998 7.13741194 17.58836567 8.95313022 19 11 C21.55519921 11.81171228 21.55519921 11.81171228 24 12 C24 13.65 24 15.3 24 17 C22.68 17.33 21.36 17.66 20 18 C20 18.99 20 19.98 20 21 C17.625 20.375 17.625 20.375 15 19 C14.28293018 17.01751285 13.61709587 15.01584651 13 13 C10.52495206 10.24994674 9.2281766 10.02037291 5.5 9.6875 C2.11745091 9.73547657 2.11745091 9.73547657 0 11.1875 C-2 12 -2 12 -5.75 10.625 C-6.8225 10.08875 -7.895 9.5525 -9 9 C-9 7.68 -9 6.36 -9 5 C-6.36 5 -3.72 5 -1 5 C-0.67 3.35 -0.34 1.7 0 0 Z " fill="#121110" transform="translate(262,475)"/>
<path d="M0 0 C5 1 5 1 6.39379883 2.39868164 C6.74466553 2.97996826 7.09553223 3.56125488 7.45703125 4.16015625 C7.84697266 4.78857422 8.23691406 5.41699219 8.63867188 6.06445312 C9.2197168 7.05348633 9.2197168 7.05348633 9.8125 8.0625 C10.21919922 8.72572266 10.62589844 9.38894531 11.04492188 10.07226562 C12.04412578 11.7062579 13.02398816 13.35204973 14 15 C14.33 10.05 14.66 5.1 15 0 C16.32 0 17.64 0 19 0 C19 7.59 19 15.18 19 23 C14 22 14 22 11.54296875 18.91015625 C10.74179516 17.63754828 9.95705136 16.35447558 9.1875 15.0625 C8.78080078 14.41603516 8.37410156 13.76957031 7.95507812 13.10351562 C5 8.32075893 5 8.32075893 5 6 C4.34 6 3.68 6 3 6 C3 11.61 3 17.22 3 23 C2.01 23 1.02 23 0 23 C0 15.41 0 7.82 0 0 Z " fill="#282828" transform="translate(502,556)"/>
<path d="M0 0 C1.32 0 2.64 0 4 0 C4.55429687 0.97582031 5.10859375 1.95164062 5.6796875 2.95703125 C6.41140091 4.24222019 7.14317492 5.52737464 7.875 6.8125 C8.23980469 7.45509766 8.60460937 8.09769531 8.98046875 8.75976562 C10.58083901 11.56768798 12.20642866 14.30964298 14 17 C14.33 11.72 14.66 6.44 15 1 C15.99 1 16.98 1 18 1 C18 8.59 18 16.18 18 24 C16.68 24 15.36 24 14 24 C12.22937284 21.55385626 10.76564772 19.24880543 9.3125 16.625 C8.90966797 15.92632813 8.50683594 15.22765625 8.09179688 14.5078125 C6.6711357 12.03295886 5.2763935 9.552787 4 7 C3.67 12.61 3.34 18.22 3 24 C2.01 24 1.02 24 0 24 C0 16.08 0 8.16 0 0 Z " fill="#181818" transform="translate(447,555)"/>
<path d="M0 0 C0.99 0 1.98 0 3 0 C3 7.92 3 15.84 3 24 C1.68 24 0.36 24 -1 24 C-2.37207031 22.53125 -2.37207031 22.53125 -3.578125 20.5 C-4.01640625 19.778125 -4.4546875 19.05625 -4.90625 18.3125 C-5.3496875 17.549375 -5.793125 16.78625 -6.25 16 C-6.70890625 15.236875 -7.1678125 14.47375 -7.640625 13.6875 C-8.77346444 11.79943427 -9.88844495 9.90067429 -11 8 C-11.33 13.28 -11.66 18.56 -12 24 C-12.99 24 -13.98 24 -15 24 C-15 16.41 -15 8.82 -15 1 C-13.68 1 -12.36 1 -11 1 C-9.22721017 3.25546538 -7.77378595 5.36899879 -6.3125 7.8125 C-5.70825195 8.77639648 -5.70825195 8.77639648 -5.09179688 9.75976562 C-3.41387107 12.47199076 -2.01149133 14.96552601 -1 18 C-0.505 9.09 -0.505 9.09 0 0 Z " fill="#1C1B1A" transform="translate(613,555)"/>
<path d="M0 0 C1.91796875 1.1015625 1.91796875 1.1015625 4.73046875 3.1015625 C4.07046875 3.7615625 3.41046875 4.4215625 2.73046875 5.1015625 C2.73046875 6.0915625 2.73046875 7.0815625 2.73046875 8.1015625 C-2.4712622 8.96965689 -7.43931941 9.22671598 -12.70703125 9.1640625 C-13.43857422 9.15955078 -14.17011719 9.15503906 -14.92382812 9.15039062 C-16.70576544 9.13874398 -18.48765988 9.12081441 -20.26953125 9.1015625 C-20.1096875 8.48539062 -19.94984375 7.86921875 -19.78515625 7.234375 C-19.22846209 5.1181434 -19.22846209 5.1181434 -19.01953125 2.9765625 C-18.26953125 1.1015625 -18.26953125 1.1015625 -16.05859375 0.0078125 C-10.91590762 -1.66320036 -5.09079022 -2.015287 0 0 Z " fill="#E1DFDD" transform="translate(366.26953125,483.8984375)"/>
<path d="M0 0 C5.28 0 10.56 0 16 0 C16 0.99 16 1.98 16 3 C11.71 3 7.42 3 3 3 C3 5.64 3 8.28 3 11 C6.96 11 10.92 11 15 11 C15 11.99 15 12.98 15 14 C11.37 14 7.74 14 4 14 C4 16.31 4 18.62 4 21 C7.96 21 11.92 21 16 21 C16 21.99 16 22.98 16 24 C10.72 24 5.44 24 0 24 C0 16.08 0 8.16 0 0 Z " fill="#3D3C3C" transform="translate(526,555)"/>
<path d="M0 0 C0 0.99 0 1.98 0 3 C-1.15628906 3.05607422 -1.15628906 3.05607422 -2.3359375 3.11328125 C-3.84027344 3.21189453 -3.84027344 3.21189453 -5.375 3.3125 C-6.87160156 3.39951172 -6.87160156 3.39951172 -8.3984375 3.48828125 C-9.25695312 3.65714844 -10.11546875 3.82601562 -11 4 C-13.23465229 7.35197843 -13.27108649 8.57791246 -13.25 12.5 C-13.25515625 13.4590625 -13.2603125 14.418125 -13.265625 15.40625 C-13.17982609 18.23622897 -13.17982609 18.23622897 -11 21 C-9.02252878 21.36297936 -9.02252878 21.36297936 -6.875 21.1875 C-5.59625 21.125625 -4.3175 21.06375 -3 21 C-2.67 18.69 -2.34 16.38 -2 14 C-3.65 14 -5.3 14 -7 14 C-7 13.01 -7 12.02 -7 11 C-4.36 11 -1.72 11 1 11 C1.08082094 12.95766281 1.13910778 14.91626728 1.1875 16.875 C1.23970703 18.51082031 1.23970703 18.51082031 1.29296875 20.1796875 C1.19628906 21.11039063 1.09960938 22.04109375 1 23 C-3.22583705 25.8172247 -7.03570016 25.67547031 -12 25 C-15.09799981 22.80873184 -15.80352112 21.58943664 -17 18 C-17.53454143 12.21167996 -18.00933946 6.91053541 -15.25 1.6875 C-10.28470846 -0.89063215 -5.4835275 -0.39355461 0 0 Z " fill="#181817" transform="translate(487,555)"/>
<path d="M0 0 C1.26328125 0.03609375 2.5265625 0.0721875 3.828125 0.109375 C5.27445313 0.17898438 5.27445313 0.17898438 6.75 0.25 C6.75 0.91 6.75 1.57 6.75 2.25 C5.90695312 2.29898438 5.06390625 2.34796875 4.1953125 2.3984375 C3.09960938 2.47320313 2.00390625 2.54796875 0.875 2.625 C-0.76082031 2.72941406 -0.76082031 2.72941406 -2.4296875 2.8359375 C-5.38046474 2.98253491 -5.38046474 2.98253491 -7.25 5.25 C-7.53190557 8.34322457 -7.53190557 8.34322457 -7.4375 11.8125 C-7.43105469 12.98941406 -7.42460938 14.16632812 -7.41796875 15.37890625 C-7.57517435 18.14635973 -7.57517435 18.14635973 -6.25 19.25 C-4.56816052 19.48287008 -2.8787584 19.66264166 -1.1875 19.8125 C-0.26839844 19.89628906 0.65070312 19.98007812 1.59765625 20.06640625 C2.66306641 20.15728516 2.66306641 20.15728516 3.75 20.25 C3.75 17.94 3.75 15.63 3.75 13.25 C2.1 13.25 0.45 13.25 -1.25 13.25 C-1.25 12.26 -1.25 11.27 -1.25 10.25 C1.39 10.25 4.03 10.25 6.75 10.25 C6.83082094 12.20766281 6.88910778 14.16626728 6.9375 16.125 C6.98970703 17.76082031 6.98970703 17.76082031 7.04296875 19.4296875 C6.94628906 20.36039063 6.84960938 21.29109375 6.75 22.25 C2.73141405 24.9290573 -0.52641721 24.94610694 -5.25 24.25 C-8.12029869 22.45606332 -9.74131638 21.26736724 -11.25 18.25 C-11.42484831 15.9626402 -11.51720049 13.66858557 -11.5625 11.375 C-11.59988281 10.14007812 -11.63726563 8.90515625 -11.67578125 7.6328125 C-11.25 4.25 -11.25 4.25 -9.68359375 1.8203125 C-6.33471876 -0.34059881 -3.94904054 -0.14626076 0 0 Z " fill="#171716" transform="translate(632.25,555.75)"/>
<path d="M0 0 C3.9375 0.5 3.9375 0.5 5.9375 1.5 C7.57477748 4.77455496 7.69421118 7.98518265 6.9375 11.5 C4.5191209 14.26386182 2.97092666 15.29835577 -0.625 16 C-3.94605037 15.3187589 -5.06063654 14.21681469 -7.0625 11.5 C-8.0625 8.5625 -8.0625 8.5625 -8.0625 5.5 C-6.06598858 1.50697716 -4.37039854 0.17739625 0 0 Z " fill="#F7F6F1" transform="translate(261.0625,536.5)"/>
<path d="M0 0 C0.99 0.33 1.98 0.66 3 1 C2.67 1.99 2.34 2.98 2 4 C-1.3 4 -4.6 4 -8 4 C-8.66 5.65 -9.32 7.3 -10 9 C-8.86111328 9.29003906 -8.86111328 9.29003906 -7.69921875 9.5859375 C-6.70535156 9.84632813 -5.71148438 10.10671875 -4.6875 10.375 C-3.70136719 10.63023437 -2.71523438 10.88546875 -1.69921875 11.1484375 C1 12 1 12 4 14 C4.6647482 20.09352518 4.6647482 20.09352518 2.625 22.875 C-0.39903817 24.96856489 -2.35335646 25.13560071 -6 25.125 C-6.886875 25.12757813 -7.77375 25.13015625 -8.6875 25.1328125 C-11 25 -11 25 -13 24 C-13 23.01 -13 22.02 -13 21 C-11.84371094 21.01740234 -11.84371094 21.01740234 -10.6640625 21.03515625 C-9.15972656 21.04869141 -9.15972656 21.04869141 -7.625 21.0625 C-6.12839844 21.07990234 -6.12839844 21.07990234 -4.6015625 21.09765625 C-2.01567547 21.18006602 -2.01567547 21.18006602 0 20 C0 18.68 0 17.36 0 16 C-0.77085937 15.73445312 -1.54171875 15.46890625 -2.3359375 15.1953125 C-3.84027344 14.66550781 -3.84027344 14.66550781 -5.375 14.125 C-6.37273438 13.77695312 -7.37046875 13.42890625 -8.3984375 13.0703125 C-11 12 -11 12 -13 10 C-13.45409879 6.51857596 -13.39476404 4.65221885 -11.5625 1.625 C-7.8146546 -0.75168245 -4.32855468 -0.48626489 0 0 Z " fill="#2A2828" transform="translate(837,555)"/>
<path d="M0 0 C0.66 0.33 1.32 0.66 2 1 C2 1.99 2 2.98 2 4 C-1.63 4 -5.26 4 -9 4 C-9.33 5.65 -9.66 7.3 -10 9 C-9.31292969 9.18175781 -8.62585938 9.36351562 -7.91796875 9.55078125 C-7.01691406 9.80214844 -6.11585938 10.05351563 -5.1875 10.3125 C-4.29417969 10.55613281 -3.40085937 10.79976562 -2.48046875 11.05078125 C0.09603624 12.03675088 1.34728462 12.81258259 3 15 C3.42478586 19.07794425 3.31282587 20.53076119 1 24 C-1.81227622 24.93742541 -3.58746844 25.13470844 -6.5 25.125 C-7.2734375 25.12757813 -8.046875 25.13015625 -8.84375 25.1328125 C-11 25 -11 25 -14 24 C-14 23.01 -14 22.02 -14 21 C-10.04 21 -6.08 21 -2 21 C-1.67 19.35 -1.34 17.7 -1 16 C-1.68707031 15.81824219 -2.37414062 15.63648438 -3.08203125 15.44921875 C-3.98308594 15.19785156 -4.88414062 14.94648437 -5.8125 14.6875 C-6.70582031 14.44386719 -7.59914063 14.20023438 -8.51953125 13.94921875 C-11.10831916 12.95854873 -12.34947211 12.20604537 -14 10 C-14.5 6.5 -14.5 6.5 -14 3 C-10.15098064 -0.84901936 -5.12497904 -0.5235735 0 0 Z " fill="#292828" transform="translate(703,555)"/>
<path d="M0 0 C4.95 0 9.9 0 15 0 C15 0.66 15 1.32 15 2 C11.04 2 7.08 2 3 2 C3 4.64 3 7.28 3 10 C6.96 10 10.92 10 15 10 C14.67 10.99 14.34 11.98 14 13 C10.37 13 6.74 13 3 13 C3 15.31 3 17.62 3 20 C7.29 20 11.58 20 16 20 C16 20.99 16 21.98 16 23 C10.72 23 5.44 23 0 23 C0 15.41 0 7.82 0 0 Z " fill="#222222" transform="translate(711,556)"/>
<path d="M0 0 C1.65 1.32 3.3 2.64 5 4 C4.34 5.65 3.68 7.3 3 9 C3.66 9 4.32 9 5 9 C5 19.56 5 30.12 5 41 C25.79 41 46.58 41 68 41 C68 41.33 68 41.66 68 42 C46.88 42 25.76 42 4 42 C3.67 31.77 3.34 21.54 3 11 C1.35 12.65 -0.3 14.3 -2 16 C-6.75 14.125 -6.75 14.125 -9 13 C-9.33 13.66 -9.66 14.32 -10 15 C-9.67 13.35 -9.34 11.7 -9 10 C-6.69 10.33 -4.38 10.66 -2 11 C-0.28322447 8.23394361 -0.28322447 8.23394361 1 5 C0.32575833 2.64539322 0.32575833 2.64539322 -1 1 C-0.67 0.67 -0.34 0.34 0 0 Z " fill="#B9B8B8" transform="translate(333,519)"/>
<path d="M0 0 C4.95 0 9.9 0 15 0 C15 0.66 15 1.32 15 2 C11.04 2 7.08 2 3 2 C3 4.64 3 7.28 3 10 C6.96 10 10.92 10 15 10 C15 10.99 15 11.98 15 13 C11.04 13 7.08 13 3 13 C3 15.31 3 17.62 3 20 C6.96 20 10.92 20 15 20 C15 20.99 15 21.98 15 23 C10.05 23 5.1 23 0 23 C0 15.41 0 7.82 0 0 Z " fill="#202020" transform="translate(427,556)"/>
<path d="M0 0 C4.95 0 9.9 0 15 0 C15 0.66 15 1.32 15 2 C11.04 2 7.08 2 3 2 C3 4.64 3 7.28 3 10 C6.63 10 10.26 10 14 10 C14 10.99 14 11.98 14 13 C10.37 13 6.74 13 3 13 C3 15.31 3 17.62 3 20 C6.96 20 10.92 20 15 20 C15 20.99 15 21.98 15 23 C10.05 23 5.1 23 0 23 C0 15.41 0 7.82 0 0 Z " fill="#171716" transform="translate(805,556)"/>
<path d="M0 0 C4.95 0 9.9 0 15 0 C15 0.66 15 1.32 15 2 C11.04 2 7.08 2 3 2 C3 4.64 3 7.28 3 10 C6.63 10 10.26 10 14 10 C14 10.99 14 11.98 14 13 C10.37 13 6.74 13 3 13 C3 15.31 3 17.62 3 20 C6.96 20 10.92 20 15 20 C15 20.99 15 21.98 15 23 C10.05 23 5.1 23 0 23 C0 15.41 0 7.82 0 0 Z " fill="#080706" transform="translate(547,556)"/>
<path d="M0 0 C1.828125 0.07421875 1.828125 0.07421875 4 1 C5.484375 4.01953125 5.484375 4.01953125 6.75 7.8125 C7.17796875 9.05644531 7.6059375 10.30039062 8.046875 11.58203125 C9 15 9 15 9 19 C9.66 19 10.32 19 11 19 C11.061875 18.0925 11.12375 17.185 11.1875 16.25 C11.97101798 10.49232998 14.65762719 5.26385624 17 0 C17.99 0 18.98 0 20 0 C17.81659819 7.86379677 15.00714974 15.41675284 12 23 C9.6262207 22.77514648 9.6262207 22.77514648 7 22 C5.78979492 20.08227539 5.78979492 20.08227539 4.98046875 17.59765625 C4.5309082 16.26250977 4.5309082 16.26250977 4.07226562 14.90039062 C3.78029297 13.96388672 3.48832031 13.02738281 3.1875 12.0625 C2.72053711 10.66354492 2.72053711 10.66354492 2.24414062 9.23632812 C0 2.41512706 0 2.41512706 0 0 Z " fill="#191817" transform="translate(751,556)"/>
<path d="M0 0 C0.91007813 0.00902344 1.82015625 0.01804687 2.7578125 0.02734375 C3.45648437 0.03894531 4.15515625 0.05054688 4.875 0.0625 C5.205 1.0525 5.535 2.0425 5.875 3.0625 C4.84439453 3.11857422 4.84439453 3.11857422 3.79296875 3.17578125 C2.89191406 3.24152344 1.99085938 3.30726563 1.0625 3.375 C0.16917969 3.43300781 -0.72414063 3.49101563 -1.64453125 3.55078125 C-4.53478343 4.147038 -5.50248904 4.60479487 -7.125 7.0625 C-7.52545717 9.7353518 -7.52545717 9.7353518 -7.375 12.625 C-7.35953125 13.59566406 -7.3440625 14.56632813 -7.328125 15.56640625 C-7.2814353 18.0606244 -7.2814353 18.0606244 -6.125 20.0625 C-3.3090151 20.53148963 -3.3090151 20.53148963 -0.0625 20.6875 C1.04222656 20.76226563 2.14695312 20.83703125 3.28515625 20.9140625 C4.13980469 20.96304688 4.99445312 21.01203125 5.875 21.0625 C5.875 22.0525 5.875 23.0425 5.875 24.0625 C3.77146505 24.1435206 1.66704048 24.20169907 -0.4375 24.25 C-1.60925781 24.28480469 -2.78101563 24.31960938 -3.98828125 24.35546875 C-7.125 24.0625 -7.125 24.0625 -8.98046875 22.73828125 C-12.26395322 17.93072207 -11.68751347 11.62013309 -11.125 6.0625 C-8.0778916 0.88241573 -5.79047363 -0.07423684 0 0 Z " fill="#2A2A29" transform="translate(794.125,554.9375)"/>
<path d="M0 0 C4.10746873 1.77367968 6.69875485 4.16459142 9 8 C9.76530835 12.19218905 9.40764684 15.18470631 7.5 19 C7.005 19.66 6.51 20.32 6 21 C5.01 20.34 4.02 19.68 3 19 C3.11859375 18.32453125 3.2371875 17.6490625 3.359375 16.953125 C4.27859771 11.45297456 4.27859771 11.45297456 2.5 6.375 C-0.89607304 4.50715983 -3.17041907 4.59688622 -7 5 C-9.83378132 5.8974827 -9.83378132 5.8974827 -12 7 C-12 3 -12 3 -10.5 1.25 C-7.00496272 -0.49751864 -3.79250062 -0.55259989 0 0 Z " fill="#151412" transform="translate(312,500)"/>
<path d="M0 0 C1.258125 -0.04125 2.51625 -0.0825 3.8125 -0.125 C4.52019531 -0.14820313 5.22789062 -0.17140625 5.95703125 -0.1953125 C8 0 8 0 11 2 C11.375 5 11.375 5 11 8 C7.91111478 10.05925681 7.29064073 10.2390374 3.8125 10.125 C1.9253125 10.063125 1.9253125 10.063125 0 10 C0 6.7 0 3.4 0 0 Z " fill="#E7E5E5" transform="translate(734,558)"/>
<path d="M0 0 C7.38804781 -0.36334661 7.38804781 -0.36334661 10 1.1875 C11.34419875 3.62386024 11.35131571 5.25973747 11 8 C9 10 9 10 6.8359375 10.1953125 C4.55729167 10.13020833 2.27864583 10.06510417 0 10 C0 6.7 0 3.4 0 0 Z " fill="#E8E7E6" transform="translate(570,558)"/>
<path d="M0 0 C1.32 0 2.64 0 4 0 C4.66 1.65 5.32 3.3 6 5 C9.93075644 4.42547254 9.93075644 4.42547254 13 2 C16.1535351 2.38425428 18.56606096 3.73481503 21.25 5.375 C21.95640625 5.79523438 22.6628125 6.21546875 23.390625 6.6484375 C24.18726563 7.31746094 24.18726563 7.31746094 25 8 C25 8.99 25 9.98 25 11 C21 11 21 11 18.9375 9.0625 C18.298125 8.381875 17.65875 7.70125 17 7 C16.01 6.67 15.02 6.34 14 6 C13.01 7.485 13.01 7.485 12 9 C5.91647856 9.66365688 5.91647856 9.66365688 3.1875 7.6875 C0 3.15789474 0 3.15789474 0 0 Z " fill="#DDD7D3" transform="translate(306,481)"/>
<path d="M0 0 C1.32 0 2.64 0 4 0 C5.51953125 1.64453125 5.51953125 1.64453125 6.8125 3.8125 C7.47185547 4.87404297 7.47185547 4.87404297 8.14453125 5.95703125 C9 8 9 8 8 11 C6.68 9.68 5.36 8.36 4 7 C3.67 12.28 3.34 17.56 3 23 C2.01 23 1.02 23 0 23 C0 15.41 0 7.82 0 0 Z " fill="#0F0E0D" transform="translate(598,556)"/>
<path d="M0 0 C2.64 0 5.28 0 8 0 C8.08082094 1.95766281 8.13910778 3.91626728 8.1875 5.875 C8.22230469 6.96554687 8.25710938 8.05609375 8.29296875 9.1796875 C8.19628906 10.11039063 8.09960938 11.04109375 8 12 C4.79619983 14.13586678 3.98060033 14.23132175 0.3125 14.125 C-0.49574219 14.10695313 -1.30398438 14.08890625 -2.13671875 14.0703125 C-3.05904297 14.03550781 -3.05904297 14.03550781 -4 14 C-4.33 13.34 -4.66 12.68 -5 12 C-4.67 11.34 -4.34 10.68 -4 10 C-1.03 10 1.94 10 5 10 C5 7.69 5 5.38 5 3 C3.35 3 1.7 3 0 3 C0 2.01 0 1.02 0 0 Z " fill="#363536" transform="translate(631,566)"/>
<path d="M0 0 C2.475 0.495 2.475 0.495 5 1 C6.8125 4.0625 6.8125 4.0625 8 7 C7.01 7.33 6.02 7.66 5 8 C5 7.34 5 6.68 5 6 C4.34 6 3.68 6 3 6 C3 11.61 3 17.22 3 23 C2.01 23 1.02 23 0 23 C0 15.41 0 7.82 0 0 Z " fill="#383838" transform="translate(502,556)"/>
<path d="M0 0 C2.81627654 1.09973447 5.40481193 2.45393051 8 4 C8 4.33 8 4.66 8 5 C0.74 5 -6.52 5 -14 5 C-9.47901704 0.47901704 -6.3220113 -0.96228845 0 0 Z " fill="#111110" transform="translate(361,487)"/>
<path d="M0 0 C4.95 0 9.9 0 15 0 C15 0.66 15 1.32 15 2 C11.04 2 7.08 2 3 2 C2.67 7.94 2.34 13.88 2 20 C1.34 20.33 0.68 20.66 0 21 C0 14.07 0 7.14 0 0 Z " fill="#110F0E" transform="translate(711,556)"/>
<path d="M0 0 C1.32 0.66 2.64 1.32 4 2 C4.25 7.625 4.25 7.625 2 11 C-0.81227622 11.93742541 -2.58746844 12.13470844 -5.5 12.125 C-6.2734375 12.12757813 -7.046875 12.13015625 -7.84375 12.1328125 C-10 12 -10 12 -13 11 C-13 10.01 -13 9.02 -13 8 C-9.04 8 -5.08 8 -1 8 C0.09805807 3.35954625 0.09805807 3.35954625 0 0 Z " fill="#262626" transform="translate(702,568)"/>
<path d="M0 0 C0.99 0 1.98 0 3 0 C3 7.59 3 15.18 3 23 C2.01 23 1.02 23 0 23 C0 15.41 0 7.82 0 0 Z " fill="#121111" transform="translate(589,556)"/>
<path d="M0 0 C0.99 0 1.98 0 3 0 C3 7.59 3 15.18 3 23 C2.01 23 1.02 23 0 23 C0 15.41 0 7.82 0 0 Z " fill="#151413" transform="translate(775,556)"/>
<path d="M0 0 C0.99 0 1.98 0 3 0 C3 7.59 3 15.18 3 23 C2.01 23 1.02 23 0 23 C0 15.41 0 7.82 0 0 Z " fill="#1A1A1A" transform="translate(494,556)"/>
<path d="M0 0 C0.33 0 0.66 0 1 0 C1 1.65 1 3.3 1 5 C4.3 5 7.6 5 11 5 C11.81302325 6.45804169 12.62540131 7.91644315 13.4375 9.375 C14.11619141 10.59316406 14.11619141 10.59316406 14.80859375 11.8359375 C15.5650536 13.20996622 16.29854631 14.59709261 17 16 C15.68 16 14.36 16 13 16 C11.7265625 14.25 11.7265625 14.25 10.625 12 C9.44585622 9.79168474 9.44585622 9.79168474 8 8 C4.7859186 7.32987578 4.7859186 7.32987578 2 8 C1.67 9.98 1.34 11.96 1 14 C0.67 14 0.34 14 0 14 C0 9.38 0 4.76 0 0 Z " fill="#060605" transform="translate(568,563)"/>
<path d="M0 0 C0.33 0 0.66 0 1 0 C1 2.31 1 4.62 1 7 C4.63 7 8.26 7 12 7 C12 7.99 12 8.98 12 10 C8.37 10 4.74 10 1 10 C1 12.31 1 14.62 1 17 C4.96 17 8.92 17 13 17 C13 17.33 13 17.66 13 18 C8.71 18 4.42 18 0 18 C0 12.06 0 6.12 0 0 Z " fill="#454342" transform="translate(549,559)"/>
<path d="M0 0 C2.64 0 5.28 0 8 0 C8.02686553 1.97909398 8.04633375 3.95828971 8.0625 5.9375 C8.07410156 7.03964844 8.08570313 8.14179687 8.09765625 9.27734375 C8 12 8 12 7 13 C4.66702567 13.04092937 2.33294775 13.04241723 0 13 C0.639375 12.649375 1.27875 12.29875 1.9375 11.9375 C4.82163832 9.22815794 4.7100822 6.84141089 5 3 C3.35 3 1.7 3 0 3 C0 2.01 0 1.02 0 0 Z " fill="#212222" transform="translate(480,566)"/>
<path d="M0 0 C3.7952131 1.49097658 5.61042731 3.75700849 8 7 C4.77626323 9.14915785 3.73296326 9.38286803 0 9 C-2 7 -2 7 -2.25 4.5 C-2 2 -2 2 0 0 Z " fill="#E9E9E9" transform="translate(659,568)"/>
<path d="M0 0 C4.95 0 9.9 0 15 0 C15 0.66 15 1.32 15 2 C11.04 2 7.08 2 3 2 C3 4.64 3 7.28 3 10 C2.01 10.33 1.02 10.66 0 11 C0 7.37 0 3.74 0 0 Z " fill="#181514" transform="translate(805,556)"/>
<path d="M0 0 C2.2102955 1.02620862 4.07317497 2.05716794 6 3.5625 C8.04443806 5.03193986 9.54522028 5.56164648 12 6 C12 6.66 12 7.32 12 8 C10.20906809 8.08086147 8.41710372 8.13912702 6.625 8.1875 C5.12839844 8.23970703 5.12839844 8.23970703 3.6015625 8.29296875 C2.74304688 8.19628906 1.88453125 8.09960938 1 8 C-1 5 -1 5 -0.625 2.3125 C-0.41875 1.549375 -0.2125 0.78625 0 0 Z " fill="#21201F" transform="translate(208,503)"/>
<path d="M0 0 C1.61648438 0.04060547 1.61648438 0.04060547 3.265625 0.08203125 C4.08546875 0.11683594 4.9053125 0.15164063 5.75 0.1875 C5.75 1.1775 5.75 2.1675 5.75 3.1875 C4.99074219 3.22488281 4.23148437 3.26226563 3.44921875 3.30078125 C2.45535156 3.36652344 1.46148437 3.43226563 0.4375 3.5 C-0.54863281 3.55800781 -1.53476562 3.61601563 -2.55078125 3.67578125 C-5.49384457 4.23372813 -6.43182999 4.87290132 -8.25 7.1875 C-8.91 5.8675 -9.57 4.5475 -10.25 3.1875 C-6.86416198 0.05642164 -4.53890538 -0.14800778 0 0 Z " fill="#333232" transform="translate(481.25,554.8125)"/>
<path d="M0 0 C2.67927341 4.01891012 2.15601248 6.24161923 2 11 C6.29 11 10.58 11 15 11 C15 11.66 15 12.32 15 13 C10.05 13 5.1 13 0 13 C0 8.71 0 4.42 0 0 Z " fill="#080707" transform="translate(527,566)"/>
<path d="M0 0 C0.33 0 0.66 0 1 0 C1 7.59 1 15.18 1 23 C-0.65 22.67 -2.3 22.34 -4 22 C-4.33 20.68 -4.66 19.36 -5 18 C-4.03320312 17.75636719 -4.03320312 17.75636719 -3.046875 17.5078125 C-0.5663746 16.04785597 -0.5663746 16.04785597 -0.390625 12.3046875 C-0.32414708 10.82887763 -0.27806121 9.35203983 -0.25 7.875 C-0.22035156 7.12089844 -0.19070313 6.36679687 -0.16015625 5.58984375 C-0.08942068 3.72714047 -0.04245017 1.86356245 0 0 Z " fill="#424142" transform="translate(520,556)"/>
<path d="M0 0 C1.875 0.3125 1.875 0.3125 4 1 C6.48836965 4.73255448 6.54226552 6.58440935 6 11 C3.5 13.4375 3.5 13.4375 1 15 C1.10828125 13.95199219 1.10828125 13.95199219 1.21875 12.8828125 C1.3115625 11.97273437 1.404375 11.06265625 1.5 10.125 C1.5928125 9.22007812 1.685625 8.31515625 1.78125 7.3828125 C2.03047295 5.06686789 2.03047295 5.06686789 2 3 C1.34 3 0.68 3 0 3 C0 2.01 0 1.02 0 0 Z " fill="#21201F" transform="translate(578,556)"/>
<path d="M0 0 C0.33 0.99 0.66 1.98 1 3 C0.31292969 3.04898438 -0.37414062 3.09796875 -1.08203125 3.1484375 C-2.43361328 3.26058594 -2.43361328 3.26058594 -3.8125 3.375 C-4.70582031 3.44460938 -5.59914063 3.51421875 -6.51953125 3.5859375 C-9.24398499 3.86645036 -9.24398499 3.86645036 -12 6 C-12.99 5.34 -13.98 4.68 -15 4 C-10.44224642 -0.86160382 -6.22129884 -0.43488691 0 0 Z " fill="#2D2B2A" transform="translate(799,555)"/>
<path d="M0 0 C4.95 0 9.9 0 15 0 C15 0.33 15 0.66 15 1 C13.7934375 1.185625 13.7934375 1.185625 12.5625 1.375 C11.716875 1.58125 10.87125 1.7875 10 2 C9.67 2.66 9.34 3.32 9 4 C6.93359375 4.4140625 6.93359375 4.4140625 4.4375 4.625 C3.61121094 4.69976562 2.78492188 4.77453125 1.93359375 4.8515625 C0.97646484 4.92503906 0.97646484 4.92503906 0 5 C0 3.35 0 1.7 0 0 Z " fill="#2B2A28" transform="translate(300,477)"/>
<path d="M0 0 C2.64 0 5.28 0 8 0 C8 3.96 8 7.92 8 12 C7.01 12.33 6.02 12.66 5 13 C5.33 9.7 5.66 6.4 6 3 C4.02 3 2.04 3 0 3 C0 2.01 0 1.02 0 0 Z " fill="#1E1E1E" transform="translate(631,566)"/>
<path d="M0 0 C4.29 0 8.58 0 13 0 C12.67 0.99 12.34 1.98 12 3 C8.37 3 4.74 3 1 3 C1 5.31 1 7.62 1 10 C0.67 10 0.34 10 0 10 C0 6.7 0 3.4 0 0 Z " fill="#2A2826" transform="translate(713,566)"/>
<path d="M0 0 C0.99 0.33 1.98 0.66 3 1 C2.979375 1.804375 2.95875 2.60875 2.9375 3.4375 C2.70366379 5.93354885 2.70366379 5.93354885 4 7 C6.32817964 7.36760731 8.6618385 7.70241581 11 8 C10.67 8.66 10.34 9.32 10 10 C4.71502591 10.44041451 4.71502591 10.44041451 2 10 C-0.5 7.5 -0.5 7.5 -2 5 C-1.34 3.35 -0.68 1.7 0 0 Z " fill="#EEE8E2" transform="translate(327,492)"/>
<path d="M0 0 C0.99 0 1.98 0 3 0 C3 4.95 3 9.9 3 15 C1.68 14.34 0.36 13.68 -1 13 C-1.02686553 11.02090602 -1.04633375 9.04171029 -1.0625 7.0625 C-1.07410156 5.96035156 -1.08570313 4.85820313 -1.09765625 3.72265625 C-1 1 -1 1 0 0 Z " fill="#1F1E1D" transform="translate(784,560)"/>
<path d="M0 0 C3.96 0 7.92 0 12 0 C12 0.99 12 1.98 12 3 C8.37 3 4.74 3 1 3 C1 5.31 1 7.62 1 10 C0.67 10 0.34 10 0 10 C0 6.7 0 3.4 0 0 Z " fill="#312F2C" transform="translate(807,566)"/>
<path d="M0 0 C0.99 0 1.98 0 3 0 C2.67 6.6 2.34 13.2 2 20 C1.34 20 0.68 20 0 20 C0 13.4 0 6.8 0 0 Z " fill="#050404" transform="translate(503,559)"/>
<path d="M0 0 C1.4391134 0.28359887 2.87625518 0.57721399 4.3125 0.875 C5.11300781 1.03742187 5.91351562 1.19984375 6.73828125 1.3671875 C9 2 9 2 12 4 C12 4.66 12 5.32 12 6 C7.428721 5.45144652 3.32564205 4.58255197 -1 3 C-0.67 2.01 -0.34 1.02 0 0 Z " fill="#2E2D2B" transform="translate(829,565)"/>
<path d="M0 0 C1.67542976 0.28604898 3.34385343 0.61781233 5 1 C5.625 2.875 5.625 2.875 6 5 C5.34 5.66 4.68 6.32 4 7 C1.375 6.625 1.375 6.625 -1 6 C-1.042721 4.33388095 -1.04063832 2.66617115 -1 1 C-0.67 0.67 -0.34 0.34 0 0 Z " fill="#EFEEED" transform="translate(190,531)"/>
<path d="M0 0 C1.32 0 2.64 0 4 0 C4.226875 0.763125 4.45375 1.52625 4.6875 2.3125 C6.27006834 5.55299709 7.86793594 6.35154523 11 8 C11 8.33 11 8.66 11 9 C5.48979592 9.36734694 5.48979592 9.36734694 3.25 7.6875 C0 3.3 0 3.3 0 0 Z " fill="#F1EDEA" transform="translate(306,481)"/>
<path d="M0 0 C1.67542976 0.28604898 3.34385343 0.61781233 5 1 C4.67 2.65 4.34 4.3 4 6 C2.125 6.625 2.125 6.625 0 7 C-0.66 6.34 -1.32 5.68 -2 5 C-1.46428571 1.46428571 -1.46428571 1.46428571 0 0 Z " fill="#EDEAE8" transform="translate(187,506)"/>
<path d="M0 0 C0.598125 0.226875 1.19625 0.45375 1.8125 0.6875 C1.1525 0.6875 0.4925 0.6875 -0.1875 0.6875 C-0.373125 1.96625 -0.55875 3.245 -0.75 4.5625 C-0.85441406 5.28179688 -0.95882812 6.00109375 -1.06640625 6.7421875 C-1.3559297 8.76890667 -1.3559297 8.76890667 -0.1875 10.6875 C-1.1775 11.0175 -2.1675 11.3475 -3.1875 11.6875 C-5.50032587 8.21826119 -5.61228586 6.76544425 -5.1875 2.6875 C-3.56506312 0.17272283 -3.00892892 -0.42984699 0 0 Z " fill="#151514" transform="translate(659.1875,566.3125)"/>
<path d="M0 0 C0.99 0 1.98 0 3 0 C2.52309796 1.62566606 2.04340334 3.25051311 1.5625 4.875 C1.29566406 5.77992188 1.02882813 6.68484375 0.75390625 7.6171875 C0 10 0 10 -1 12 C-1.99 11.67 -2.98 11.34 -4 11 C-3.5247412 9.35303396 -3.04468109 7.70745272 -2.5625 6.0625 C-2.29566406 5.14597656 -2.02882813 4.22945312 -1.75390625 3.28515625 C-1 1 -1 1 0 0 Z " fill="#232220" transform="translate(768,556)"/>
<path d="M0 0 C1.65 0 3.3 0 5 0 C5.33 0.99 5.66 1.98 6 3 C6.66 3.66 7.32 4.32 8 5 C6.68 5.33 5.36 5.66 4 6 C4 6.99 4 7.98 4 9 C2.68 8.34 1.36 7.68 0 7 C0.33 6.01 0.66 5.02 1 4 C0.61067144 1.85744207 0.61067144 1.85744207 0 0 Z " fill="#EEEBE9" transform="translate(294,503)"/>
<path d="M0 0 C1.67542976 0.28604898 3.34385343 0.61781233 5 1 C5.5625 2.9375 5.5625 2.9375 6 5 C5 6 5 6 1.9375 6.0625 C0.4834375 6.0315625 0.4834375 6.0315625 -1 6 C-1.042721 4.33388095 -1.04063832 2.66617115 -1 1 C-0.67 0.67 -0.34 0.34 0 0 Z " fill="#EAE9EA" transform="translate(187,482)"/>
<path d="M0 0 C1.36511719 0.29197266 1.36511719 0.29197266 2.7578125 0.58984375 C3.45648437 0.74582031 4.15515625 0.90179687 4.875 1.0625 C3.885 2.5475 3.885 2.5475 2.875 4.0625 C1.39382199 3.78122579 -0.08493249 3.48716268 -1.5625 3.1875 C-2.38621094 3.02507813 -3.20992187 2.86265625 -4.05859375 2.6953125 C-4.74050781 2.48648438 -5.42242188 2.27765625 -6.125 2.0625 C-6.455 1.4025 -6.785 0.7425 -7.125 0.0625 C-4.4030754 -1.2984623 -2.9418043 -0.64116248 0 0 Z " fill="#2A2928" transform="translate(698.125,565.9375)"/>
<path d="M0 0 C4.62 0 9.24 0 14 0 C14 0.66 14 1.32 14 2 C9.38 2.33 4.76 2.66 0 3 C0 2.01 0 1.02 0 0 Z " fill="#070707" transform="translate(428,556)"/>
<path d="M0 0 C0 0.99 0 1.98 0 3 C-2.73905345 4.36952673 -4.97087332 4.12621361 -8 4 C-8.66 3.67 -9.32 3.34 -10 3 C-10 2.34 -10 1.68 -10 1 C-3.375 0 -3.375 0 0 0 Z " fill="#242423" transform="translate(667,576)"/>
<path d="M0 0 C0.99 1.32 1.98 2.64 3 4 C2.34 5.32 1.68 6.64 1 8 C1 6.68 1 5.36 1 4 C-3.95 4 -8.9 4 -14 4 C-14 3.67 -14 3.34 -14 3 C-10.04 3 -6.08 3 -2 3 C-2 2.34 -2 1.68 -2 1 C-1.34 0.67 -0.68 0.34 0 0 Z " fill="#CAC5C3" transform="translate(822,555)"/>
<path d="M0 0 C1.43861294 0.08746284 2.87597508 0.19565348 4.3125 0.3125 C5.11300781 0.37050781 5.91351563 0.42851563 6.73828125 0.48828125 C9 1 9 1 12 4 C8.7 4 5.4 4 2 4 C1.34 2.68 0.68 1.36 0 0 Z " fill="#2D2D2D" transform="translate(473,576)"/>
<path d="M0 0 C3 1 3 1 4.75 3.375 C6 6 6 6 5 9 C0.125 5.25 0.125 5.25 -1 3 C-0.67 2.01 -0.34 1.02 0 0 Z " fill="#151514" transform="translate(601,558)"/>
<path d="M0 0 C0.66 0.33 1.32 0.66 2 1 C2.625 4.0625 2.625 4.0625 3 7 C0.16032769 7 -2.23735711 6.59732819 -5 6 C-4.34 5.01 -3.68 4.02 -3 3 C-2.34 3 -1.68 3 -1 3 C-0.67 2.01 -0.34 1.02 0 0 Z " fill="#E7E7E8" transform="translate(311,572)"/>
<path d="M0 0 C3.21043882 1.38188453 5.04936365 2.92421903 7.25 5.625 C8.03117188 6.57246094 8.03117188 6.57246094 8.828125 7.5390625 C9.40820312 8.26222656 9.40820312 8.26222656 10 9 C7 9 7 9 5.17578125 7.5390625 C4.56089844 6.90742187 3.94601563 6.27578125 3.3125 5.625 C2.68988281 4.99851562 2.06726563 4.37203125 1.42578125 3.7265625 C0 2 0 2 0 0 Z " fill="#161515" transform="translate(228,536)"/>
<path d="M0 0 C3.96 0.33 7.92 0.66 12 1 C10 3 10 3 7.6171875 3.1953125 C6.71226562 3.17210937 5.80734375 3.14890625 4.875 3.125 C3.50988281 3.09792969 3.50988281 3.09792969 2.1171875 3.0703125 C1.41851563 3.04710937 0.71984375 3.02390625 0 3 C0 2.01 0 1.02 0 0 Z " fill="#0F0E0D" transform="translate(824,576)"/>
<path d="M0 0 C0.99 0.33 1.98 0.66 3 1 C3 2.32 3 3.64 3 5 C3.66 5 4.32 5 5 5 C5 5.99 5 6.98 5 8 C1.125 7.125 1.125 7.125 0 6 C-0.04080783 4.00041636 -0.04254356 1.99954746 0 0 Z " fill="#1F1D1B" transform="translate(824,559)"/>
<path d="M0 0 C3.63 0.33 7.26 0.66 11 1 C10.67 1.66 10.34 2.32 10 3 C6.7 3 3.4 3 0 3 C0 2.01 0 1.02 0 0 Z " fill="#0F0F0F" transform="translate(689,576)"/>
<path d="M0 0 C0.33 0 0.66 0 1 0 C1.04241723 2.33294775 1.04092937 4.66702567 1 7 C0 8 0 8 -3.5625 8.0625 C-4.696875 8.041875 -5.83125 8.02125 -7 8 C-6.34 7.34 -5.68 6.68 -5 6 C-3.68 6 -2.36 6 -1 6 C-1.020625 5.195625 -1.04125 4.39125 -1.0625 3.5625 C-1 1 -1 1 0 0 Z " fill="#030405" transform="translate(487,571)"/>
<path d="M0 0 C0 5.61 0 11.22 0 17 C-0.33 17 -0.66 17 -1 17 C-1 12.71 -1 8.42 -1 4 C-1.99 3.67 -2.98 3.34 -4 3 C-1.125 0 -1.125 0 0 0 Z " fill="#0F100F" transform="translate(337,529)"/>
<path d="M0 0 C0.33 0 0.66 0 1 0 C1 5.61 1 11.22 1 17 C0.01 16.01 -0.98 15.02 -2 14 C-1.67 13.34 -1.34 12.68 -1 12 C-0.77141886 9.9625237 -0.58975722 7.91959697 -0.4375 5.875 C-0.35371094 4.77929688 -0.26992188 3.68359375 -0.18359375 2.5546875 C-0.12300781 1.71164062 -0.06242187 0.86859375 0 0 Z " fill="#E1E0E0" transform="translate(461,556)"/>
<path d="M0 0 C3.875 0.875 3.875 0.875 5 2 C5.04092937 4.33297433 5.04241723 6.66705225 5 9 C4.34 8.01 3.68 7.02 3 6 C2.46375 5.505 1.9275 5.01 1.375 4.5 C0 3 0 3 0 0 Z " fill="#120F0E" transform="translate(742,556)"/>
<path d="M0 0 C0.66 1.32 1.32 2.64 2 4 C0.68 5.32 -0.64 6.64 -2 8 C-2 7.34 -2 6.68 -2 6 C-2.66 6 -3.32 6 -4 6 C-4 5.01 -4 4.02 -4 3 C-3.01 2.67 -2.02 2.34 -1 2 C-0.67 1.34 -0.34 0.68 0 0 Z " fill="#D8D3D0" transform="translate(286,490)"/>
<path d="M0 0 C2.34058637 2.12780579 3.70700306 4.11562221 5 7 C3.68 7 2.36 7 1 7 C0.34 5.02 -0.32 3.04 -1 1 C-0.67 0.67 -0.34 0.34 0 0 Z " fill="#141413" transform="translate(580,572)"/>
<path d="M0 0 C0.99 0 1.98 0 3 0 C2.67 2.31 2.34 4.62 2 7 C1.01 6.67 0.02 6.34 -1 6 C-0.67 4.02 -0.34 2.04 0 0 Z " fill="#282726" transform="translate(670,566)"/>
<path d="M0 0 C0.66 0 1.32 0 2 0 C2.66 2.31 3.32 4.62 4 7 C3.01 7.33 2.02 7.66 1 8 C-0.35439668 5.29120665 -0.06501451 2.99066732 0 0 Z " fill="#181715" transform="translate(689,559)"/>
<path d="M0 0 C0.99 0 1.98 0 3 0 C2.34 2.31 1.68 4.62 1 7 C0.34 7 -0.32 7 -1 7 C-1.04254356 5.00045254 -1.04080783 2.99958364 -1 1 C-0.67 0.67 -0.34 0.34 0 0 Z " fill="#181715" transform="translate(768,556)"/>
<path d="M0 0 C0.66 0.66 1.32 1.32 2 2 C0.68 3.32 -0.64 4.64 -2 6 C-2.99 5.67 -3.98 5.34 -5 5 C-3.35 3.35 -1.7 1.7 0 0 Z " fill="#191816" transform="translate(254,533)"/>
<path d="M0 0 C0.99 0 1.98 0 3 0 C3.33 1.32 3.66 2.64 4 4 C3.01 4.66 2.02 5.32 1 6 C-0.0625 4.125 -0.0625 4.125 -1 2 C-0.67 1.34 -0.34 0.68 0 0 Z " fill="#242422" transform="translate(316,515)"/>
<path d="M0 0 C0.66 0.33 1.32 0.66 2 1 C1.67 2.98 1.34 4.96 1 7 C0.01 6.67 -0.98 6.34 -2 6 C-1.34 4.02 -0.68 2.04 0 0 Z " fill="#181818" transform="translate(764,567)"/>
<path d="M0 0 C0.99 0 1.98 0 3 0 C3.66 1.65 4.32 3.3 5 5 C4.01 5.33 3.02 5.66 2 6 C0 3 0 3 0 0 Z " fill="#202121" transform="translate(508,563)"/>
<path d="M0 0 C1.32 0 2.64 0 4 0 C4.33 1.32 4.66 2.64 5 4 C4.34 4 3.68 4 3 4 C2.67 4.66 2.34 5.32 2 6 C0 3 0 3 0 0 Z " fill="#E5E0DD" transform="translate(306,481)"/>
<path d="M0 0 C1.32 0.66 2.64 1.32 4 2 C4 3.32 4 4.64 4 6 C3.34 6 2.68 6 2 6 C0.375 3.5 0.375 3.5 -1 1 C-0.67 0.67 -0.34 0.34 0 0 Z " fill="#0C0B0A" transform="translate(702,568)"/>
<path d="M0 0 C0.99 0.33 1.98 0.66 3 1 C1.68 2.32 0.36 3.64 -1 5 C-1.66 4.67 -2.32 4.34 -3 4 C-2.67 3.01 -2.34 2.02 -2 1 C-1.34 0.67 -0.68 0.34 0 0 Z " fill="#201F1E" transform="translate(625,556)"/>
<path d="M0 0 C0.66 0.33 1.32 0.66 2 1 C1.54625 1.7425 1.0925 2.485 0.625 3.25 C-0.68640796 5.46930578 -1.88280803 7.67967822 -3 10 C-3.36923077 4.58461538 -3.36923077 4.58461538 -1.5 1.625 C-1.005 1.08875 -0.51 0.5525 0 0 Z " fill="#2C2A27" transform="translate(187,527)"/>
<path d="M0 0 C0.5775 0.78375 1.155 1.5675 1.75 2.375 C3.82897637 4.80047244 5.09040333 5.85694417 8 7 C5.125 7.125 5.125 7.125 2 7 C0 5 0 5 -0.125 2.375 C-0.08375 1.59125 -0.0425 0.8075 0 0 Z " fill="#292823" transform="translate(329,493)"/>
</svg>
